<svg xmlns="http://www.w3.org/2000/svg" width="678" height="255" fill="none"><g clip-path="url(#a)"><path fill="#fff" d="M164.6 26.6c-6-3-37-23.8-42-25.3-5.2-1.5-20.7 16.2-20.7 16.2l-3 3.1s-9.4-1.8-13 1.3c-3.6 3-5.6 21.6-6 29.2a73.3 73.3 0 0 0 5.9 22.4l.1.5c-.4 0-.8.2-1.2.4-3.4 2-2.2 12.4.6 17.5 2.4 4.3 7 1.8 8.4.8.1 8.4.6 29 1.2 35.9.5 5.9 5 9.4 13.6 11.5l-1.3 11 28.5-8.2c12 .1 16.8-2 18-6.2 1.2-4 4-41.4 5.4-61.9l3.6-4.6c3.3-4.5 4.4-9.7 5.2-14.2.6-3 2.7-26.4-3.3-29.4Z"/><path fill="#DDAF94" d="M85 73.8c2.5-4.1 7.2.3 9.2 3l2-11.2-3-17.4 2-14.4 19.5-4 11.3-1.1 20.5 9.2 15.3 14.3c-.7 4.5-2 13.6-2 14.4l-3.1 39c-.7 8.5-1.8 24.7-1 21.4.8-3.2 5.8-2.7 8.2-2-1.4 4.4-4.5 15-6.2 21.5a44 44 0 0 0 2 20.5c0 .7-.8 2.5-4 4.1-3.3 1.6-5.5-.7-6.2-2-2 .6-6.5 2.2-8.2 3-1.6.8-4-1-5-2-.8 0-4.6.2-14.4 1-9.9.8-13.7-5.1-14.4-8.2v-7.2l-1-4 3-12.4-6-1c-6.6-1.6-9-10.2-9.3-14.3V92.2c-2.7.7-8.4 1.9-9.2 1-1-1-3-14.3 0-19.4Z"/><path fill="#fff" d="M133.2 264.3c2-16 7-31 11-41.5l1.3-2.2s17.6 39 32.2 40.4c11.3 1.2 9.3-13.4 8.2-20.1-3-18.3-20.7-76.8-20.7-76.8l-9.6-1.7-5 6.6-20.5 2.1-16.4-2-5.1-6.7-2-9.7.5-8.7c-8.5.2-12.4 5.9-13.7 8.4l-1.7.3s-20 2.5-30.8 10.3C50.1 170.7 37 203.4.4 257l132.8 7.2Z"/><path fill="#193560" d="M139.4 58.3c0-.8.1-1.7.3-2.5l.5-1.2.5-1.4c.4-.9.8-1.7 1.4-2.5.3-.5.5-1.1 1-1.6a4 4 0 0 1 1.5-1c.5-.3 1-.6 1.5-.7 1-.4 2-.3 3 0l1.6.9a9 9 0 0 1 2.2 2.2 14 14 0 0 1 1.3 2.4l.4.9a1.1 1.1 0 0 1 0 1.1.2.2 0 0 0 0 .2c0 .3-.5.8-.9 1.2l-.4.2-.2-.1-.3-.6-.3-.8c-.3-.8-.4-1.6-1-2.2l-.7-1.1c-.2-.4-.5-.8-.9-1.1a4 4 0 0 0-1.2-.6c-.3 0-.6-.3-1-.3a1.4 1.4 0 0 0-1.2.3c-.1.2-.4.3-.6.3-.3 0-.6.2-.9.4l-.4.8-.5.8-.9 1.9-.5 1.1a10 10 0 0 0-.6 3.6c0 .2-.2.4-.9.5h-.2c-.5 0-1 0-1.3-.2-.3 0-.3-.2-.4-.3v-.6Z"/><path fill="#D9745E" d="M100 19.5s16.8-18 22.7-16.4c6 1.7 42.1 23.5 43.8 27.4 1.2 2.8 9.5 36-7 41.5 0 0 1.4-10.3 0-12-1.4-1.7-9.8-8.2-18-15-8.2-6.7-13-9.7-14-9-1 .8 1 11 2 12.5 1 1.6-11-5.3-18-10-7-4.6-7-4-7-4-1.4 3.4-2 4.9-2.5 8.5-.8 6.2-3.2 25.9-7.5 34 0 0-5.2-1.6-9.7-2.3 0 0-5-20.4-5.3-27.7a69 69 0 0 1 9-27c2.4-3 11.5-.5 11.5-.5Z"/><path fill="#5E7290" d="M107.5 148.2s-9.2.9-17.5 11.5c0 0-23.5 4.3-29.8 13.1-6.3 8.9-36.6 68.5-53.8 85 0 0 36.9 2.7 64.4 3.7 0 0 15.7-28.8 27.6-55.1 5.7-12.6 9.2-29.2 9.2-29.2s-2.2-26.4 0-29Zm28.6 18.2s-22.1 80.3-32.7 96.8l29.8 1.1s7.3-33.9 11.6-43.7c0 0 9.9 17.8 16.1 27.3 6.3 9.5 16.7 15.1 21.4 12.7 4.8-2.5-16.8-80.4-21.2-92.3 0 0-7.6 5-12.7 1.5l-12.3-3.4Z"/><path fill="#193560" d="M92.5 95.6c-.7.3-1.4.4-2.2.5a5.5 5.5 0 0 1-4.6-1.5 7 7 0 0 1-1.4-1.8c-.6-1.2-.9-2.5-1.2-3.7a34 34 0 0 1-1-8.4c0-1.5.2-3 .6-4.3l.6-1.3a4 4 0 0 1 1-1.2c1-.6 2-1 3-1 1.9.1 3.4.8 4.9 1.5a34.8 34.8 0 0 1 2 1V75l.1-.1.5-1.6a65.5 65.5 0 0 1 1.7-5.3l.6-2.1c.6-2.5 1.2-5 1.6-7.5l.6-3.4.5-3.5V51l.4-2.5c0-1 0-2 .6-3V45c0-1 .7-1.8 1.2-2.7l.5-.3.1.5.1 2.2-.1 2.7c0 2.6-.7 5-.8 7.6-.2 1.5-.4 3-.8 4.4L99.9 64l-.5 2.5-.5 2.5-1.3 3.9-2.2 6.5-.2-.1-2.4-1.6-.8-.5-.6-.4c-1-.6-2-1.1-3.1-1.3-1-.2-2 0-2.4.5l-.6.8-.4 1.3-.3 3.3.3 3.4a30.2 30.2 0 0 0 1.5 6 6 6 0 0 0 1.1 1.7c.7.8 1.8 1 3 .8.8-.1 1.4-.4 2-.8a1.6 1.6 0 0 1 1.8 0h.2c.1.5.4 1 .3 1.5 0 .2-.4.5-.6.8H94l-1.6.7Zm15.1-60.8 6.7 4.3 3.3 2.2a70.4 70.4 0 0 0 7.7 4.3l1.9.9.8.3.4.2h.5l-.1-.5-.1-.2-.1-.3-.1-.3-.1-.3-.2-.6a36 36 0 0 1-1.2-5v-.6l-.1-.6-.3-1.9.2-.8v-.4l.1-.2v-.1l.7-.5h.8c.4 0 .9 0 1.3.3l1.4.8.5.3.4.2a30.3 30.3 0 0 1 3.7 2.9l3.9 3 6.6 5.5 5.8 4.8.6.5 2.1 1.6c1 .6 1.9 1.4 2.6 2.2.1.2.3.3.4.3 1 .6 1.3 1.6 2 2.4l.1.6h-.5L157 59l-2.6-1.7c-2.3-1.5-4.3-3.4-6.6-5-1.3-.9-2.4-2-3.7-3l-4-3.5c-1.4-1.2-3-2.2-4.4-3.3l-3.4-2.8-2.3-1.6V38h-.2l-.2-.1h-.2v1l.7 3.9.6 1.8.2.5.3.6.3.9.2.9c.1.5 0 1-.2 1.4l-.4.6a1.8 1.8 0 0 1-1 .4H129l-1-.3c-.3 0-.5-.2-.8-.3l-.6-.2-.4-.2-1-.4-1.9-.9-3.6-1.9c-1.3-.7-2.5-1.6-3.8-2.4l-4.5-2.9-4-2.6a62 62 0 0 0-2.4-1.5c-.6-.4-1-.9-1-1.7v-.2c.5-.3.8-.7 1.3-.8.2-.1.6.1 1 .2l1.4 1Z"/><path stroke="#193560" stroke-linecap="round" stroke-width="3" d="M103.5 16.5 117 5c1.8-1.8 7.6-3.9 16 2.5s22.5 14.7 28.5 18c4.5 1.5 8 9 8 29 0 16-10 17-10 17m-59.5-52c-2.8-1.5-9.4-3-13 3-3.6 6-6.2 24.5-7 33 .2 3.7 2 8.5 4.5 15.5"/><path fill="#193560" d="m133.8 96 3-1.5c.4-.2 1-.3 1.4-.6l1.7-.8a26 26 0 0 0 3.5-2.2.3.3 0 0 0 0-.4v-.1l-.1-.3-.4-.9-.8-1.6c-.6-.9-1-1.8-1.4-2.7-.2-.6-.6-1.2-.9-1.7l-1.6-3.1-1.5-2.7-.1-.3-.5-1a1.7 1.7 0 0 1-.3-1.5v-.2c-.3-.4.2-1 .4-1.5l.4-.4.2.1.6.8.5 1.1c.6 1 .8 2 1.6 3 .4.5.6 1.1.9 1.7.3.7.5 1.3 1 2l1.2 1.8.7 1.7c.3.7.8 1.4 1.3 2 .3.4.5.8.6 1.3a7.6 7.6 0 0 1 .4 1.2v.2l.2.4.2.6.1.7c0 .5-.2 1-.6 1.4l-.3.3-.2.2-.4.3-.7.5-2.9 1.7-1.7.7-2 1-1.7 1c-.4 0-.7.3-1 .5-.3.1-.6.1-1-.4l-.2-.2-.4-1.3.2-.5.6-.3Z"/><path fill="#fff" d="m111.6 101.4 33.8 4.1a42.4 42.4 0 0 1-11.2 21.5c.3.4-1 1-9.3 1-8.1 0-12.2-17.7-13.3-26.6Z"/><path fill="#193560" d="m142.3 106.8-9.2-.8-4.5-.7-5.3-.6-9.5-1.2h-.5l.1.6v.4l.3.7.3 1.5 1.3 5.4a36.8 36.8 0 0 0 6 11.7 10 10 0 0 0 4 3c1.2.5 2.6.7 4 .6 1.4-.1 2.8-.6 3.9-1.4a19 19 0 0 0 5.2-6l.5-.8 1.4-2.7a15 15 0 0 1 1.8-3.4l.2-.6c.4-1.2 1.4-1.9 2-2.8l.6-.3v.6c-.1 1-.4 1.8-.6 2.7L143 116c-1.1 3-2.8 5.7-4.7 8.4-1.1 1.6-2.6 3-4.3 4-2 1-4.1 1.5-6.3 1.3-2.4-.1-4.6-1-6.4-2.4a17 17 0 0 1-3.6-4c-1.3-2-2.3-4-3.4-6-.5-1.3-1-2.5-1.3-3.8-.5-1.6-.7-3.2-1.1-4.7l-.6-2.3-.3-1.1-.1-.6v-.1l-.1-.3-.1-.6-.3-2.2v-.6l-.1-.3v-.1h1.2l2.3.3 1.4.2 9.1 1 5.1.8 6.1.6a255.3 255.3 0 0 0 8.6.8c.9 0 1.6.2 2 1 0 0 .1.1 0 .2-.1.4-.3 1-.6 1.2-.2.3-.7.3-1.1.3h-.1l-2-.2Zm-22.9-37.6c0 2.1-1.3 3.8-2.7 3.7-1.4-.1-2.5-1.9-2.4-4 .2-2 1.4-3.7 2.8-3.6 1.4 0 2.5 1.8 2.3 4Z"/><path fill="#193560" d="m119.6 69.3-.6-.2-.3-.1.2-.2v-.4l-.2-.1c.1-.3.1-.5 0-.8 0-.1 0-.3-.2-.4v-.3l-.6-.7-.2-.2a.2.2 0 0 0-.2 0l-.2-.2a.4.4 0 0 0-.4 0 .4.4 0 0 1-.4 0l-.1.1a.6.6 0 0 0-.4.3l-.4.4-.1.4-.1.5-.1.1a.2.2 0 0 0-.1.3l-.1.2c.1.2-.2.3-.3.5v.5l-.1.2c-.1 0-.1.1 0 .2v.1l.2.2v.1l.1.6s.2 0 .1.2v.3c.2.1.2.2.1.4v.3c.2.1.2.2.2.3a.3.3 0 0 0 .3.3l.8.3h.7a.3.3 0 0 0 .3-.2l.3-.3c.1-.1.3-.1.3-.3l.3-.6.2-.5v-.4l-.1-.4v-.3l.3-.2h1.1a.5.5 0 0 1 0 .5v1l-.2.6v.3l-.2.2s-.2 0-.2.2-.2.3-.3.5c-.1.1-.1.3-.3.3-.2.4-.6.4-.8.6l-.9.3-.7-.2a11.5 11.5 0 0 0-1.1-.3l-.4-.4-.7-1-.2-1-.1-.5c-.2-.2 0-.4-.3-.5l.1-1.7.3-.7.2-.5.1-.6.4-.7c.2 0 .1-.3.4-.3 0-.4.6-.5 1-.7l.1-.2c.2 0 .3-.2.5-.1h.7l1.4.6c.3.2.5.4.7.8l.5.9v.2c.1 0 0 .1 0 .2l.3.9a1 1 0 0 1 0 1c0 .2-.1.2-.6.3Zm30.9 4c-.1 2-1.2 3.4-2.4 3.3-1.3 0-2.2-1.7-2-3.6 0-2 1.2-3.4 2.4-3.4 1.2.1 2.1 1.7 2 3.7Z"/><path fill="#193560" d="m150.6 73.3-.5-.1c-.2 0-.3-.1-.2-.2l.1-.1v-.4s-.1-.1 0-.1v-.7l-.3-.4V71l-.5-.6a2.4 2.4 0 0 0-.3-.3h-.2a.3.3 0 0 0-.4 0 .4.4 0 0 1-.3 0h-.2a.5.5 0 0 0-.3.3l-.3.4-.1.3-.1.5-.1.1a.2.2 0 0 0 0 .2l-.2.3c.1.2-.1.2-.2.4v.5l-.1.1c-.1.1-.1.2 0 .2v.2l.1.1v.1l.2.5v.7c.2 0 .2.1.1.3v.3c.2 0 .2.2.2.3v.1h.2l.7.4h.6a.3.3 0 0 0 .4-.1l.2-.4c.1 0 .2 0 .3-.2 0-.3.2-.4.3-.6l.1-.5v-.3l-.1-.3v-.4l.3-.1.4-.1h.5a.4.4 0 0 1 0 .5v.8l-.1.6v.2l-.2.2-.1.1c0 .3-.3.4-.4.6 0 0 0 .2-.2.2-.1.3-.5.4-.7.6-.2.2-.5.3-.8.3a2 2 0 0 1-.6-.2l-.6-.2-.5-.1-.3-.4a3 3 0 0 1-.6-.9 4 4 0 0 1-.2-1v-.3c-.2-.2 0-.4-.3-.5l.1-1.5.3-.7.1-.4.1-.6.4-.5c0-.1 0-.3.3-.4 0-.4.5-.5.8-.7l.2-.1c.2 0 .3-.2.5-.1h.6l1.2.6c.6.3.8 1 1 1.5l.2.2v.1l.1.9a.9.9 0 0 1 0 .8v.1c0 .1-.1.2-.6.2Zm-45.7-15 .3-2.5.5-1.2.5-1.4 1.4-2.5 1-1.6a9.2 9.2 0 0 1 3-1.7c1-.4 2-.3 3 0l1.7.9a9 9 0 0 1 2.1 2.2 14 14 0 0 1 1.4 2.4l.3.9a1.1 1.1 0 0 1 0 1.1.2.2 0 0 0 0 .2c.1.3-.5.8-.8 1.2l-.5.2-.2-.1-.3-.6-.2-.8c-.4-.8-.4-1.6-1-2.2-.4-.3-.5-.8-.7-1.1l-1-1.1a4 4 0 0 0-1.2-.6l-.9-.3a1.4 1.4 0 0 0-1.2.3 1 1 0 0 1-.7.3c-.3 0-.6.2-.8.4l-.4.8-.6.8-.8 1.9-.6 1.1a10 10 0 0 0-.6 3.6c0 .2-.2.4-.9.5h-.2c-.4 0-.9 0-1.3-.2-.2 0-.3-.2-.4-.3l.1-.6Zm7.1-37.6a20.6 20.6 0 0 1 7.8-3.5l.9-.1h.8c1.4-.1 2.7 0 4 .3l1.8.5 1.6.7 3.3 1.4 4 1.8 3.5 2 3.3 2c1.7 1 3.4 2.1 5 3.4l3 2.5a54.2 54.2 0 0 1 9 10l.3.6 1.1 2 .7 1.3.4 1.4v.4c.3.4.3.8.3 1.3v1.2c0 .2-.2.3-.3.4l-.2-.4-.8-1.7a28.8 28.8 0 0 0-4.4-7.8l-2.5-3-2.9-3c-1-1-2.3-1.9-3.5-2.8l-2.7-2.2c-1.3-1-2.6-1.8-4-2.5l-2.3-1.4-2.8-1.7-3-1.3-2.9-1.3c-2-.9-4-1.8-5.9-2.1l-.8-.2h-.8l-.9-.1h-.8c-1.4.1-2.7.5-4 1a19.6 19.6 0 0 0-5 3c-.5.3-1 .6-1.5.5l-.2-.1-.2-1 .4-.7 1.2-.9Z"/><path stroke="#193560" stroke-linecap="round" stroke-width="2.5" d="M112 22.5c3.5-2.8 12.4-7.2 20-2 9.5 6.5 24.5 14.5 28 22 2.8 6 3.8 10.9 4 12.5"/><path fill="#193560" d="m95.2 91.9.1 6.8-.2 3.3v11.2c.1 1.5.4 3 .4 4.4l.2 4.2.3 4 .2 1.4c0 .5 0 1 .2 1.5 0 1 .3 1.8.6 2.6a7 7 0 0 0 2 2.9 22.2 22.2 0 0 0 5.8 3.2l1.5.4.7.3h.4l.7.2 1.4.4.7.2v.8l-.3 2.6-.1.6-.3 2.3c0 1-.3 2-.7 2.8l-.1.5c-.1.9-1 1.5-1.4 2.3l-.6.2v-2.4l.3-2.5.5-3.5.1-.8v-.7l.1-.4h-.2l-.3-.1h-.3l-.3-.1-1-.3-2-.7a26 26 0 0 1-4.1-2.1 13 13 0 0 1-3.9-3.3 13.2 13.2 0 0 1-1.8-5.2v-1.2l-.5-2.4-.2-2.9v-3.5c0-1.1-.3-2.2-.4-3.3l-.1-3.4-.1-6.8V90.8a1.4 1.4 0 0 1 .8-1.6h.2c.4 0 .9.2 1.3.4.3.1.3.5.4.8v1.4Zm44.1 49.4 2.3-.1 2.2-.2a23 23 0 0 0 4.2-1c1.3-.4 2.5-.8 3.4-1.7a4.5 4.5 0 0 0 1.3-2.3v-.6l.2-.6.1-.6.4-2.5.3-2.4.6-5 .3-6 .5-5.8c.2-1.7.3-3.5.3-5.3l.6-8.4c.3-1.8.3-3.7.4-5.6l.6-9.8.5-8.8.1-.8.3-3.2c0-1.3.2-2.7.6-4l.1-.5c.1-1.3.9-2.3 1.4-3.3 0-.2.3-.3.5-.4v3.3l-.2 3.5c-.1 3.1-.6 6.2-.6 9.4l-.3 5.5-.5 6c-.1 2.2 0 4.3-.2 6.4 0 1.7-.3 3.4-.4 5.1-.2 2.2-.3 4.4-.3 6.7 0 1.3 0 2.6-.2 3.8l-.6 4.7v4.6l-.5 4.6c-.3 3.1-.6 6.2-1.1 9.3-.2 1-.4 1.8-.9 2.8a8 8 0 0 1-1.9 2.4 10 10 0 0 1-3 1.8l-3.1 1-5.7.6-3.2.2c-.8 0-1.5-.2-2-.9 0 0-.2-.1-.1-.2.2-.4.3-1 .6-1.3.2-.3.7-.3 1-.4h2.1Zm-52.9 13.9a99.8 99.8 0 0 0-13.4 3.5l-3.2 1.1-1.6.6-1.5.7-1.8.8-1.7 1-1.6 1-1.4 1.2a37.7 37.7 0 0 0-5 5.5A99 99 0 0 0 51 177l-4.6 8-4.5 7.5-4 7c-2 3.8-4.1 7.6-6.4 11.2l-4.4 7.4a825 825 0 0 1-15 24.3l-.7 1-2.6 4a27.2 27.2 0 0 1-4.2 5.6c-1.1 1.7-2.6 2.5-3.9 3.7-.2.2-.5.2-.7.2l.4-.8 2.1-3.5 3-4.4c2.6-4 5.4-7.9 7.8-12 1.4-2.5 3-4.8 4.5-7.2l4.9-8 4.7-8.4 4-6.6c1.7-3 3.4-5.8 5-8.9.8-1.7 1.8-3.4 2.8-5.1l3.8-6.2c1.2-2 2.1-4.1 3.3-6.1A115.4 115.4 0 0 1 56.5 165l1.3-1.3 1.4-1.3c2.3-1.6 4.7-2.9 7.2-4a74.5 74.5 0 0 1 17.2-5.3l4.7-1c1.3-.2 2.4-.2 3.2.4l.2.2c-.2.5-.3 1-.7 1.5-.3.3-1 .4-1.5.6h-.2l-2.9.5Z"/><path fill="#193560" d="M101.2 179c0-1 0-2.1-.3-3.1l-.5-1-.3-.2a.6.6 0 0 0-.2 0h-.1a17.2 17.2 0 0 0-7.2.8c-2.4.6-4.8 1.5-7.4 2.3l-1.1.4-.4.1-.4.2-1 .1c-.6.1-1.2 0-1.7-.3l-.5-.7-.2-.8c0-1 .9-2.6 1.1-3l1-2 2-3.7c.8-2 1.8-4 2.9-5.9l2-3.9 1.6-3.4.9-1.8v-.1l.1-.2.2-.5.5-1c.6-1 1.3-2.1 2.1-3l1.3-1.4 1.5-1.2.6-.4 1.2-.7.6-.3.6-.3a6.5 6.5 0 0 1 2.5-.8h1.4c1-.2 2 .5 2.8.8l.3.5a2 2 0 0 1-.4.2l-2 .3-1.3.3c-.4 0-.8.2-1.2.4l-1.6.6-.8.4-.7.5-.8.5-.6.5a19.1 19.1 0 0 0-3.6 4.7 12 12 0 0 0-.6 1.3l-.2.3-.3.5-1 2.1-2 4.6-1.9 3.5a35 35 0 0 0-2.1 4.7l-1.4 2.8-1 1.5-.4.8-.3.4v.5a.3.3 0 0 0 .2 0v-.1l.7-.2 1.7-.6a64 64 0 0 1 7-2.2 28.2 28.2 0 0 1 7.3-.8h.8a4 4 0 0 1 1.6 1c.6.6 1 1.4 1.3 2.3l.4 2.4v2.6c0 .7-.2 1.3-1 1.6h-.2l-1.2-.6c-.3-.2-.3-.5-.4-.8v-.1l.1-1.4Zm35.8-8-2.7 9.6c-.4 1.6-1 3.1-1.6 4.7l-1.7 5.4-3.4 10.4-1.7 6.4-2 5.9-1.7 5.5a81 81 0 0 1-3 8.7c-.7 1.9-1.2 3.9-2 5.8l-1.7 5-1.9 5-1.7 4.5-.9 2.3-.9 2.2c0 .3-.3.6-.4.9-.4 1-1 2-1.3 3.1-.5 1.4-1.2 2.7-2.2 3.8l-.3.6c-.5 1.3-1.6 2-2.5 2.9l-.6.2v-.7l1.2-2.7 1.5-3.4 2-4.7c.8-1.5 1.4-3.1 2-4.8.5-1.9 1.4-3.7 2.1-5.6l2.4-6.1 2-6.6 1.9-5.2a56 56 0 0 0 2-7l1.3-4c.6-1.5 1.3-3.1 1.8-4.8l1.2-4.8 1.4-4.8 3-9.5 1.8-5.2 2-6.4 1.7-5.8.8-3.2c.3-1 .6-1.6 1.4-2h.3c.4.3.8.5 1 1 .3.2.1.8.1 1.2v.1l-.6 2Zm14.2 57.6a171.2 171.2 0 0 0 12.8 20.3c2.4 3 5 6 8 8.3 1.7 1.3 3.6 2.3 5.6 2.6h3c1-.3 1.8-.7 2.5-1.4a9 9 0 0 0 2.3-5.2c.3-2 .4-4.2.2-6.3l-.8-6.4-.6-3.2-.7-3.2c-1.2-5.2-2.7-10.3-4-15.4l-4-14.5c-1.2-4.5-2.5-9-3.9-13.4-2-7-4.3-14.1-6.2-21.2a169 169 0 0 0-1-3.6l-.3-.6v-.1l-1.2-.2-7-1.2-9.2 7 .1.4.5 1.5 1 2.9 1.7 5.8c2.3 7.4 4.5 14.8 6.5 22.3l.6 2.2 2 8a66.8 66.8 0 0 1 2.4 11.8c.3 1.5.5 3.1.5 4.7v4.3l-.2 1-.4-1.4-.7-3.4-.8-3.4c-.7-3-1.2-6-2-8.9-2-8-4-16-6.4-23.9-1.5-4.6-2.8-9.3-4.2-14l-1.5-5-.8-2.7-1-3.1 4.6-3.5 3.2-2.4 3.5-2.8 4.7.8 4.2.7 1.3.2h.4l.2.1v.2l.2.7.6 1.9 1 3.2 1.8 6.4c1.6 5.6 3.2 11.2 5 16.7 1.2 3.2 2 6.5 3 9.8l3 12 3.4 11.6 1.4 5.9c.5 2 1 4 1.3 6l.6 3a75.7 75.7 0 0 1 1 9.2c0 2.2-.3 4.4-1 6.5a9 9 0 0 1-4.3 5.5 9 9 0 0 1-4 .9h-.9l-1-.2c-.6 0-1.2-.2-1.8-.4-2.4-.8-4.4-2.2-6.2-3.7a46 46 0 0 1-5.8-5.8 154.8 154.8 0 0 1-16.5-26.3c-1-2-1.7-3.8-1.6-5.2v-.3c.7.2 1.2.2 2 .8.4.4 1 1.6 1.5 2.4l.1.3 2.3 4.4Z"/><path fill="#193560" d="m132 261.8.5-2.9.5-2.8.8-2.7.8-3.2 1.6-6 .8-3.7a75.5 75.5 0 0 1 2-6.6c.3-1.7.9-3.4 1.5-5 .5-1 .8-2.2 1.2-3.3l1-2.9a92.4 92.4 0 0 1 3.1-8l.3-.4.8-1.8c.2-.8.7-1.6 1.4-2.1l.2-.3c.3-.7 1.2-1 1.9-1.4h.5v.4l-.6 1.5-1 2c-.6 1.7-1.7 3.4-2.2 5.3L146 221l-1.4 3.4-1 3.8-1.2 3c-.4 1.2-.9 2.5-1 4a9 9 0 0 1-.6 2.2c-.4 1-.8 1.8-1 2.7-.3 1-.3 2-.5 2.8l-.7 2.8-.7 2.7-.7 2.7-.9 3-.8 3.7-.6 3.4-.2 1.9c0 .5-.3.9-1 1l-.3.1-1.2-.5c-.3-.2-.2-.5-.3-.7v-.1l.2-1.2ZM66.8 204l-3.6 6c-.6 1-1.3 1.8-2 2.7l-2.1 3.3-4.1 6.2-2.3 4-2.3 3.5a105 105 0 0 0-2 3.4c-1 1.8-2.2 3.6-3.4 5.3-.9 1-1.5 2.3-2.3 3.5l-4 6.1-3.5 5.5-.4.5-1.3 2a7 7 0 0 1-2 2.2l-.3.3c-.5.9-1.5 1-2.3 1.5h-.6l.1-.4 1-1.8 1.5-2.1c1.2-2 2.8-3.8 3.8-5.9l2.3-3.4 2.5-3.8c.9-1.3 1.5-2.7 2.4-4 .6-1.2 1.4-2.2 2-3.2 1-1.4 1.9-2.8 2.6-4.3.4-.9.9-1.7 1.5-2.4l2-3 1.6-3c.5-1 1.2-1.9 1.8-2.8L57 214l2.2-3 2.5-4a144 144 0 0 0 2.1-3.4l1.2-2a1.4 1.4 0 0 1 1.4-1l.3.1 1 1-.2 1-.8 1.3Zm42.1-41.8 1.8 2 .7 1 .6.5.5.5a13 13 0 0 0 2.3 1.8c.5.3 1.1.4 1.6.6l1.5.7 1.4.4c.8 0 1.6.2 2.3.4h.8l.8.1 3 .3a11.8 11.8 0 0 0 2.5 0l.9-.2a1.2 1.2 0 0 1 1.1.2h.2c.4 0 .8.5 1.3.9l.2.4-.1.2-.8.3-1 .2c-1 .3-2 .2-3 .4-.6.2-1.2 0-1.8 0l-1.8-.3H122l-1.6-.2-2-.3a3 3 0 0 1-1.3-.3l-1.3-.8-1.4-.3-1.3-.7a16.4 16.4 0 0 1-3.5-3l-1.3-1.4a64.4 64.4 0 0 1-1.8-2c-.2-.2-.2-.5.3-1l.1-.2 1.2-.7h.5c0 .2.2.3.3.5Z"/><path fill="#193560" d="M108.4 156.4c.3 3.8.6 7.6.7 11.4a62.2 62.2 0 0 1-.7 12.2 63 63 0 0 1-3 12.1l-1.3 3.6-1.4 3.5-3 6.3-2.7 6c-1.4 3.2-2.8 6.3-4.4 9.4l-3 6.2-5 11-4.7 9.7-.5 1-1.7 3.4c-.7 1.5-1.4 3-2.5 4.2a3 3 0 0 0-.3.6c-.7 1.5-1.8 2.3-2.8 3.3l-.6.3.1-.7 1.3-3.1 1.9-3.8c1.5-3.6 3.5-7 5-10.5.8-2 1.9-4.1 2.9-6.1l3.2-6.8 3.1-7.1 2.8-5.6 3.3-7.5a24 24 0 0 1 2-4.3l2.5-5.2c.8-1.7 1.3-3.4 2-5.2l2-5.1c1-3.5 1.8-7.1 2.3-10.8.2-2 .6-4 .6-6V169l-.2-3.7a408.3 408.3 0 0 0-.7-10.6c0-1 0-2 .7-2.6l.2-.1c.5.2 1 .3 1.4.6.2.3.3.9.4 1.3v.2l.1 2.3Z"/><path fill="#F3D1BE" d="M163 127.6c1.4-3.4-2.5-6.5-8.2 3-3.7 6.4-2.2 8.7-4.6 9.3-2.4.5-15.9-2.7-24 2.4-4 2.4 6.1 6 6.3 8.1.2 2.2-3.6 4.8-1 7 3.1 2.7-.2 4.4 3.2 8.2 2.4 2.7.2 6 4.9 6 2.8 0 6.3-1.4 8.6-2.5l.1.3s-1 .2 2.3 1.6c3.2 1.4 7.3-1.4 7.3-1.4s2.8-1.3 1.7-5.5c-1-4.2-2-7.8-1.3-14.4.5-5 .9-13.7 4.6-22Z"/><path fill="#193560" d="M146 171.7a24.5 24.5 0 0 1-4.9 1.3h-3.3l-1.3-.6-.6-.5-.5-.6c-.5-.7-.7-1.5-.9-2.3 0-.5-.2-1-.4-1.5a4 4 0 0 0-.3-.5l-.5-.7-.6-.8-.3-.5-.3-.5a6 6 0 0 1-.5-2.3v-1.9a2 2 0 0 0-.4-1.4l-.3-.3-.3-.4-.5-.5-.4-.7-.3-.8a3.1 3.1 0 0 1 0-1.2l.1-.4 1-2.2a6.6 6.6 0 0 0 .8-1.7v-.2l-.3-.3-1.5-1.1c-1-.8-2.2-1.5-3.3-2.5a5.1 5.1 0 0 1-1.5-2c-.2-.5-.3-1-.1-1.6.1-.4.4-.9.7-1.2l.4-.5.4-.3a10 10 0 0 1 3-1.7 34.5 34.5 0 0 1 10-1.4c3.1 0 6.3.5 9.3.8h1.6a.4.4 0 0 0 .3-.2l.3-.6.5-2a23.9 23.9 0 0 1 2.2-5.4l1.9-3c.7-1 1.5-2 2.4-2.8a9 9 0 0 1 1.6-1.2c.7-.4 1.5-.6 2.3-.6a3.4 3.4 0 0 1 1 .2 3 3 0 0 1 2 2.1 4.3 4.3 0 0 1-.2 2.5l-.2.6-1.5 4.1a68 68 0 0 0-2.6 15.3c-.2 2.4-.4 4.6-.3 7 0 2.2.3 4.4.9 6.6l.3 1.3.3 1.3.3 1.4c.1 1 0 2.1-.2 3.2 0 .4-.2.8-.5 1.1a2 2 0 0 1-1.1 1.1 13.9 13.9 0 0 1-5 1.5l-1 .1a4.7 4.7 0 0 1-3.7-1l-.5-.5-1-1v-.3h-.1v.4a2.3 2.3 0 1 0 0-.3.6.6 0 0 0 .3-.2l.4.1c.6.4 1.2.6 1.9.9.5.1 1.2.2 1.8.1a13 13 0 0 0 5-1.4l.8-.4c.2-.1.3-.2.3-.4.3-.4.4-1 .4-1.5s0-1.1-.2-1.7l-.2-.9-.2-.9a52.8 52.8 0 0 1-1.4-12.2l.4-4.5a96 96 0 0 1 2.6-14.8l.4-1.3.4-1.2.5-1.3.2-.6.1-.3.1-.2c.2-.4.2-.8 0-1.1l-.1-.3h-.4c-.5 0-1 .2-1.3.5l-1.4 1.1a20.7 20.7 0 0 0-5 8.8l-.3 1.5c-.1.4-.2 1-.5 1.6a5 5 0 0 1-.5 1 3 3 0 0 1-.8.8l-.3.2-.3.1-.3.1h-.3l-.3.1h-1c-1.4 0-2.6-.2-3.9-.4l-3.7-.4c-2.4 0-4.8 0-7.1.3a13.8 13.8 0 0 0-6.9 2.4l-.3.2-.1.2c-.2.2-.1 0 0 .2 0 .3.3.6.6.8l1.3 1 3.2 2.2.9.8a3 3 0 0 1 .8 2.4l-.1.8-.3.5-.2.6c-.4.7-.8 1.2-1 1.8-.2.3-.4.7-.4 1v.2l.1.2.2.2.2.2.2.2a6 6 0 0 1 1.2 1.6 5.2 5.2 0 0 1 .4 2.3v1.2c0 .6.1 1.2.4 1.8l.6.9.3.4.5.6c.5.9.9 1.8 1 2.7.2.8.3 1.5.5 1.7l.2.2.2.1.4.1.4.1c1.2.1 2.6 0 4-.4 1.6-.5 3-1 4.5-1.7 1.2-.6 2.2-1 3.2-.7h.3c0 .6 0 1.1-.2 1.7-.2.4-1 .8-1.5 1.2h-.1l-3 1.2Zm3.6 17.8-1.5-1.7-.5-1-.8-1c-.4-.7-1-1.3-1.5-1.9a11 11 0 0 0-1.2-.8l-1-.9-1-.5h-.8c-.3 0-.6.4-.8.7L139 184c-.4.5-.8 1-1.1 1.7l-.2.1-.4.6a1 1 0 0 1-.9.6c-.2.3-1 .2-1.5.2a3 3 0 0 1-.4-.1v-.3l.1-.6.5-.8c.4-.7 1-1.2 1.3-2 .2-.4.6-.7.9-1l1-1.2c.4-.4.7-1 1.2-1.4a3.7 3.7 0 0 1 2.6-.6l.7.2h.7c.4.1.7.4 1 .6l.9 1 1 .5 1 .8 1.5 1.8.7 1.1.9 1.2.9 1.1.5.6c.1.2.1.4-.3 1h-.2l-1.1.8h-.5l-.3-.4Z"/><path fill="#fff" d="M591.9 143.3c-7.2-1.5-40.1-4.8-41.3-5.7-1-.6-2.7-4.3-4.2-7.4l-15 5.6c.9 2.8.7 4.4 1 8.1 0 0-.9 2.9-23.6 29.7l-11.9 18.6s21.7 16 21.7 20c0 3.8 10.3 13.1 30.1 49.8l80-9.7s-24.2-28.2-24.5-32.1c-.3-3.4-3.4-20.6-4.1-24.8 12 11.8 38.1 37.2 58.6 58l19.2-1.7c-47.1-49.8-78.8-106.9-86-108.4Z"/><path fill="#0AC16A" d="M540.8 188.5c-3.3.8-12.3-12-16.4-18.4 2.4-1 8.2-3.1 12.3-3.1 4 0 19.4-9.6 26.6-14.3L553 177.2c-2.7 3.5-9 10.5-12.2 11.3Z"/><path fill="#fff" d="M572 42.8c2.3-3.2 7.6-16.8-7-27.4-15-10.9-30.7-3.4-33.6 4.6-2.6 7-.1 11.7.6 12.8-6.3-1-16.7-.8-29 5.7-18.2 9.6-27.4 35.2-25.6 54.3.5 5.8 2.2 9.5 4 11.9l2.8 3.3c.4 2.8 1 5.6 1.6 8.3 5.4 20 27.9 23.6 45.5 19.4 1 3 .8 4.5 1.1 8.2l18.2-6.3c-1-.6-2.7-4.3-4.2-7.4a28.4 28.4 0 0 0 14-24.8l.1-3.9c2.6 2.3 6.5-.1 8.4-3.6 1.1-2 2-5.8 1.7-9.2l.3-1.2s2.8-18.5-5.6-33.6a38 38 0 0 0-4.7-6.6c2.8.2 8.1 0 11.4-4.5Z"/><path fill="#fff" d="m505.9 178.9.8-22 .6-7.1s3.3-8.8 1-13.7c-2.2-5-10.6-2.5-14.2-6.4-4.1-4.4-9.4-10.2-11.6-26.5-1-6.4-4.3 4.3-3.9 11.8.5 7.4.8 17.7 3.5 21.3 2.7 3.6 13.6 7.8 13.9 10.5l1 2s-10.5 70.2-12.3 84.6c-1 7.8-1 17.9 8 18.2 6.8.3 28.9-34.5 28.9-34.5l-15.7-38.2Z"/><path fill="#FFCEB2" d="m481.4 101.4 10.2-38.9 17.4-8.2 20.5-4.1h16.4L556 82l6.2-2c3.4-.4 10 1.1 9.2 10.2-.8 9-6.5 11.2-9.2 11.2 0 14.8-11 24.6-16.4 27.7l5.1 8.2 17.4 3-6.1 12.4c-6.6 9.8-29.4 15.7-40 17.4l-3-6.2 13.3-19.4-1-9.3c-3.3 4.1-16.4 1.7-22.6 0 3.3 4.1 0 11.3-2 14.4V173l-2 24.6c-3.4 5.8-11.7 3.8-15.4 2l6.1-44v-8.2c0-1-1.8-3.9-9.2-7.1-7.4-3.3-7.9-18.5-7.2-25.7l2-13.3Z"/><path fill="#193560" d="M502 72.8a12 12 0 0 0-.7-2.4l-.7-1-.9-1.2a7 7 0 0 0-2.2-1.8c-.6-.3-1.1-.7-1.8-.8h-.9l-.9.1-1.6.6a4 4 0 0 0-1.9 1.7l-.8 1.3a16.3 16.3 0 0 0-2 6.2c0 .1 0 .3.2.5a.2.2 0 0 1 0 .1c0 .3.6.7 1 1l.5.2.2-.2.3-.6v-.8c.3-.7.2-1.5.6-2.1.3-.4.3-.8.4-1.2l.5-1.3 1-1.1.5-.9c.3-.3.7-.6 1.1-.6l.6-.1c.2-.2.4-.3.7-.3.2 0 .5.3.6.4l.6.3 1.2 1 .7.9.6 1.2a8.3 8.3 0 0 1 .4 1.8c0 .2.2.3 1 .3h.2a3 3 0 0 0 1.3-.3c.3 0 .3-.2.4-.3l-.2-.6Z"/><path fill="#FFAC69" d="M545 35.5s-26.9-7.2-46 5.3A53.4 53.4 0 0 0 480 71a98.4 98.4 0 0 0 0 30.7c.8 4 2-1.8 3 0 0 0 1.3-20.4 6.3-26.2 5-5.8 20-18 32.3-21.1 12.2-3.2 15.5-3.8 18.7-.8a122 122 0 0 1 15 25c.7 3.5 1 10.3 2.4 11.4 1.4 1 3-6.3 4.7-8 1.7-1.5 5.8 1.4 5.8 1.4s1-20.3-5.8-30.9a62 62 0 0 0-17.4-17Z"/><path fill="#FFAC69" d="M531 32s-.3-8.4 1-14c1.8-7.7 20.9-12.1 32.5-3 13 5 17 32.5-2.4 32 0 0-5-2.1-13.1-7.5a61 61 0 0 0-18-7.5Z"/><path fill="#5E7290" d="m521.5 167.7-15.6 17.6-1.2 13.6s-6.3 3.2-10.3 3c0 0-4.5 33.8-4.5 39 0 5 2.2 10.4 6.3 8.3 4.2-2.2 24.5-30.9 24.5-30.9l-2.4-5 1.2-28.2s3.6 25 4.6 27.5c1 2.3 31 48.8 31 48.8l73-8.5-1.5-4.3s-18.8-20.4-22.4-28.4c-3.7-8-3.3-24.4-3.3-24.4l57.8 57.5 12.4-1.2s-11.9-11.5-40-48.1c-17-22-37.1-49.6-39.6-51.8-3-2.5-26.1-4.3-26.1-4.3S552 185.7 544 188c-8 2.4-22.5-20.3-22.5-20.3Z"/><path fill="#193560" d="m534.7 53.8-2.7.2-1.3.2-1.3.2H528l-1.4.2-1.5.3-1.5.3-2.9.8c-1 .3-1.9.5-2.8.9l-1.6.7-1.6.8-3.1 1.3-2.7 1.6-2.1 1.3-1.1.6-.5.3-.6.3c-1 .5-1.8 1.3-2.7 1.9l-2.3 1.7-1.1 1-1.1.9-2 1.7-.4.4-.5.5-.9.9-.4.3c-.4.4-1 .8-1.3 1.3-.5.6-1 1.2-1.9 1.5 0 0-.2 0-.2.2-.5.5-1.5.5-2.3.7l-.5-.1.1-.4 1-1.3 1.4-1.6.4-.5.6-.5 1-1 2-2c.8-.9 1.7-1.5 2.6-2.2l.7-.6.7-.6 1.5-1 1.5-1.4a26.5 26.5 0 0 1 4.1-2.8l1.7-1a31 31 0 0 0 1.7-1.2 10 10 0 0 1 2-1.1c1-.5 2-.7 2.8-1l2.4-1.5 2.7-1 2.6-.9 2.8-.7 3.1-.5 1-.1.9-.2 1.8-.2 1.7-.2h1.8l1.9-.2c.5 0 1 .2 1.2 1v.2c0 .5-.2 1-.4 1.4-.1.2-.4.2-.6.3h-1.1Zm28.6 46.9c.5 0 1-.3 1.4-.5a8.4 8.4 0 0 0 3.3-4 14 14 0 0 0 1.4-7.9 7.3 7.3 0 0 0-1.4-3.5c-.3-.5-.8-.9-1.3-1.1a5 5 0 0 0-1.7-.6 2.3 2.3 0 0 0-1.8.6c-.5.4-1 1-1.2 1.6-.2.9-.5 1.7-.9 2.5l-.2.6-.2.5-.3.4-1 1.7a2.6 2.6 0 0 1-1.7.9h-.4c-.2 0-.4-.2-.6-.4a3 3 0 0 1-1-1.2l-.4-1.9-.3-1.2-.1-1-.3-1.8-.5-3.6-.3-1.2-.4-1.1-1-2.3a106.4 106.4 0 0 0-7.4-14.5l-.4-.6a24 24 0 0 0-1.6-2.3c-.7-.8-1.4-1.8-1.9-2.8l-.3-.3c-.8-.7-1-1.8-1.7-2.6l-.1-.6h.5a8 8 0 0 1 2.3 1.4c.8.7 1.6 1.5 2.2 2.3 2 2.2 3.3 4.7 4.9 7 1 1.4 1.6 3 2.4 4.5l2.3 5c.8 1.7 1.7 3.4 2.4 5.2a13.5 13.5 0 0 1 .6 2.4l.4 2.3.4 3 .3 1.4v.3l.1.1h.1l.2.2h.1l.2-.2.2-.2.2-.5a11.3 11.3 0 0 0 .6-1.5v-.4l.1-.3.2-.5.2-.4.4-.7a5.2 5.2 0 0 1 3.9-2.5c1 0 1.9 0 2.7.4l1.2.5 1.1.8c.7.5 1.2 1.2 1.7 2 .8 1.4 1.2 3 1.3 4.6 0 1.6 0 3.3-.5 5a21.6 21.6 0 0 1-1.7 4.9l-.4.6a11 11 0 0 1-4.2 3.7 6 6 0 0 1-3.4.6c-1-.1-1.7-.8-1.6-1.7v-.2l1.3-.8.3-.1h1.3Zm-56.3.7-1.5-1.1-.6-.8-.9-.8c-.5-.4-1-1-1.7-1.4-.3-.3-.8-.4-1.2-.7l-1-1c-.5-.5-.8-1.1-1-1.7a2 2 0 0 1 .3-2l.3-.2.7-.4.7-.5.4-.3a21.3 21.3 0 0 0 2.8-2.5l.2-.1.4-.5a.7.7 0 0 1 .9-.3h.1c.2-.3.9 0 1.4.2l.4.2v.2l-.2.6-.6.5-1.4 1.6c-.2.4-.6.5-1 .8l-1 .8-.6.6-.5.5-.6.3a.2.2 0 0 0 0 .2.3.3 0 0 0 .2.1l.2.1c0 .3.2.5.4.7l.9.3.7.6 1.6 1.2.7.8 1 .9 1 .8.7.5c.1 0 .2.4-.3 1l-.2.1-1 .9-.5.1-.2-.2Z"/><path fill="#fff" d="m505 106.6 30.6-8.2c1 9.2-2.4 18-5 20.4.3.4-5.9 7.4-13.4 4.1a18 18 0 0 1-12.3-16.3Z"/><path fill="#193560" d="m505.2 105.6 8.4-2.5c1.4-.5 2.8-.7 4.2-1l4.9-1.5 9-2.7 1.4-.5.7-.2.4-.1.5-.2 1.2-.5 1.2-.3.5-.2h.2v.4l.1 1.1v3.8a58.5 58.5 0 0 1-1.1 8 24 24 0 0 1-6.8 12.3c-1.3 1-2.8 2-4.3 2.8l-1.2.5-1.2.4a9.4 9.4 0 0 1-2.8.4c-1.7 0-3.3-.5-4.7-1.3-1.4-.7-2.6-1.6-3.8-2.6l-.6-.7-2.2-2.3a9 9 0 0 1-2-3.3l-.3-.5c-.8-1-.7-2.3-.8-3.4l.2-.6.4.4 1.5 2c.7 1 1.2 1.8 2 2.7l2.8 3.2a12.8 12.8 0 0 0 8 3.9l1.2-.2 1.4-.4 1.2-.5a15.6 15.6 0 0 0 5.3-4.6 23 23 0 0 0 2.5-3.9c.9-1.8 1.4-3.8 1.7-5.8 0-1.1.4-2.3.5-3.5.3-1.4.5-2.9.6-4.3v-.3a.2.2 0 0 0-.2-.2l-.1.1v.1h-.2l-.5.3-1 .3-2.2.7a430 430 0 0 1-8.3 2.6l-4.8 1.2-5.6 1.6-5.1 1.5-2.9.9c-.7.2-1.4.3-2-.3l-.2-.2.1-1.5c.1-.3.6-.5 1-.7l1.8-.5v.1Zm22.4-26c.2 2.1-.8 4-2.3 4-1.5.2-2.9-1.4-3.1-3.5-.2-2 .9-3.9 2.3-4 1.5-.2 3 1.4 3.1 3.5Zm-31 9.1c.2 1.9-.6 3.5-1.8 3.7-1.2 0-2.4-1.4-2.5-3.3-.2-2 .6-3.6 1.8-3.7 1.2-.1 2.3 1.4 2.5 3.3Z"/><path fill="#193560" d="M533.8 34.8a40.7 40.7 0 0 0-13-.6c-1 0-1.8.2-2.7.3l-.7.1-.8.2-1.5.3-2.9.8-1.4.4-1.3.5-2.7 1-2.7 1.3-.6.3-.6.4-1.3.7c-2 1.2-3.7 2.8-5.4 4.3a48.5 48.5 0 0 0-12.5 18.6 62.4 62.4 0 0 0-4.8 27.4v1c0 1.2.2 2.4.5 3.5.3 1.5.6 3 .7 4.4l.2.7c.6 1.3.5 2.6.9 4l-.1.6-.6-.5a14.8 14.8 0 0 1-3.1-6.8c-.5-1.9-.8-3.8-.9-5.7l-.2-5.7a85 85 0 0 1 3.9-21.2c.6-2 1.6-3.8 2.4-5.6l3.7-7.2c.8-1.3 1.7-2.6 2.7-3.8 1.2-1.5 2.7-2.8 4-4.2l4-4a54.3 54.3 0 0 1 15.2-7.4l1.5-.3 1.5-.3 1.6-.3 1.5-.2 1.9-.3 1.8-.2h2l1.8-.1c2.2 0 4.5.2 6.7.6.7 0 1.3.2 1.9.3l1.9.4c1 .3 1.8.8 2 1.6v.3c-.3.4-.6.8-1 1-.4.2-.9 0-1.3 0h-.2l-2-.5v-.1Z"/><path stroke="#193560" stroke-linecap="round" stroke-width="3" d="M541 35c9.2 4.7 28.5 11 27.5 47.5"/><path fill="#193560" d="M526 65.3c.2-.8.4-1.6.8-2.4l.7-1 .8-1.3a7 7 0 0 1 2.3-1.8 5 5 0 0 1 1.7-.7h1.8l1.7.6a4 4 0 0 1 1.8 1.8l.9 1.3a16.3 16.3 0 0 1 2 6.1l-.2.5v.2c0 .3-.7.6-1 1h-.7l-.3-.6-.1-.8c-.2-.7-.1-1.5-.6-2.2l-.4-1.2c0-.4-.2-.9-.5-1.3-.2-.4-.6-.7-.9-1-.2-.4-.3-.7-.6-1-.3-.3-.6-.6-1-.5l-.6-.2-.7-.3c-.3 0-.5.3-.7.5l-.5.3a9.6 9.6 0 0 0-1.9 1.8l-.6 1.2a8.2 8.2 0 0 0-.5 1.9c0 .2-.2.3-.9.3h-.2c-.5 0-1-.2-1.4-.3-.2-.1-.2-.3-.3-.4l.1-.5Zm3.1-35.3c-.8-3.5-.4-7.2.8-10.4.3-.8.7-1.6 1.2-2.3l.8-1 1-1c1.3-1.4 2.9-2.6 4.6-3.5 3.2-1.8 6.8-2.6 10.4-2.8a26 26 0 0 1 6.5.2 34.8 34.8 0 0 1 10.9 4.7l1.9 1.3 1.8 1.5a26.7 26.7 0 0 1 6.1 8.9 20.4 20.4 0 0 1-2.4 18.9l-.4.5-.5.5-.8.6-.7.5-.4.3-.5.2-.8.5-.8.3c-1.5.6-3 .9-4.5.6h-.7c-1.4 0-2.5-.8-3.5-1.4-.2 0-.2-.3-.3-.5h.6a26 26 0 0 0 6-.5c1.5-.3 2.9-1 4.1-1.9l.9-.7a9 9 0 0 0 1.8-2.8c.6-1.7 1.3-3.5 1.5-5.3.4-2 .4-4 0-6s-1.4-4-2.5-5.7a22 22 0 0 0-8.2-8l-1.6-.9-1.7-.9c-1.4-.7-2.8-1.4-4.3-1.8-1.4-.4-3-.4-4.4-.5-1.5 0-3 0-4.4.2a21.3 21.3 0 0 0-12.2 5.7l-1.6 2.3-.2.6-.3.7-.2.8-.2.7c-.5 1.7-.6 3.5-.4 5.3a9 9 0 0 0 .8 2.8c.3.7.4 1.3 0 2.1v.2c-.6.2-1 .3-1.6.2-.3 0-.6-.6-1-1l-.6-2.2Zm4.3 13c-2.3-.5-4.6-.8-6.8-1H523l-2 .1-1.9.3a32 32 0 0 0-9.3 3c-.6.5-1.3.8-2 1.2l-3.6 2.4c-.5.4-1.1.7-1.6 1.2l-1.5 1.3-1.2 1-1.2 1.2-2.3 2.2-1.4 1.6-1.4 1.6-2.2 3-1.1 1.5-1 1.6-.9 1.4-.8 1.5-1.4 3-.4.5-.9 2.2-.5 1.4a4 4 0 0 1-.7 1.3l-.2.4c-.2 1-1 1.6-1.4 2.4l-.5.2V79l.4-2 .8-2.7c.1-.6.4-1.1.6-1.7l.7-1.7.9-1.7.7-1.6 1-2 1.2-1.8 1.4-2 1.4-1.9c1-1.3 1.9-2.7 3-4 .8-1 1.8-1.8 2.8-2.8l1.9-1.8a34.3 34.3 0 0 0 1.8-1.8 14 14 0 0 1 2.4-2l1.6-1 1.6-.9 3-2 1.7-.8 1.7-.7a44 44 0 0 1 7.1-2l2-.1h7a37.4 37.4 0 0 1 6.7 1.3c.7.2 1.2.5 1.3 1.2v.2l-.8.8c-.2.1-.5 0-.8 0h-.1l-1.4-.4Zm12.6 2.6 1.5 1 1.4 1.1L550 49l1.4 1.4 1.3 1.3 1.2 1.4 1.7 1.6 1.3 1.7 1.3 1.6a10.8 10.8 0 0 1 1.7 2.7l.6.9.5 1 .9 1.6.8 1.7 1.1 3.1.1.4.3 1.1c.2.5.2 1 0 1.6v.2c.2.5-.3 1-.5 1.4l-.4.2-.1-.2-.4-.9-.2-1.2-.2-.9-.2-.8-.6-1.6-.8-1.9a19 19 0 0 0-.8-2c-.4-.7-1-1.3-1.3-2l-1-1.5c-.3-.8-.8-1.4-1.4-2l-.9-1-1-1.5c-.3-.4-.8-.7-1.2-1l-1.1-1.3-1.2-1.2-1.1-1.2-1.3-1.3a31.7 31.7 0 0 0-4.2-3.3c-.3-.1-.4-.4-.3-1V46l.8-.8h.5l.6.4Z"/><path fill="#193560" d="m554.8 34.8.5-.7.5-.8.6-.8.5-.9.2-.5.2-.4.3-1c.1-.4 0-.8.2-1.2l.2-1.2v-1a7 7 0 0 1 0-1.8v-1.2a28.4 28.4 0 0 0-.5-3.8v-.8a.9.9 0 0 1 0-.8v-.1c0-.3.5-.6.8-1l.3-.2.1.1.3.6c0 .2 0 .5.2.7.2.7 0 1.4.3 2 .2.5.2.9.2 1.3v1.3l.3 1.4v3.5l-.3 1v1c0 .4 0 .8-.2 1l-.7 2-.6 1a24.6 24.6 0 0 0-1.5 2.3 5 5 0 0 0-.4.6c0 .1-.3.2-.8 0l-.1-.2-.8-.7V35l.2-.3Zm-34.1 152.5c0 2.8 0 5.6-.2 8.4l-.3 4.2-.2 4.8-.2 4.5-.1 2.3v1.1l.1.2.2.5c.3.8.8 1.5 1.3 2.2l1.6 2.2 3 4.3 2.8 4c1.5 2 3 4.2 4.3 6.4.8 1.5 1.9 2.9 2.8 4.3a317.1 317.1 0 0 1 8.9 14.6l.3.7 1.4 2.5a8 8 0 0 1 1.4 3.4l.2.5c.6 1 .4 2.1.5 3.2l-.3.6-.4-.4-1.3-2-1.5-2.8c-1.5-2.5-2.6-5.1-4.3-7.5-1-1.4-1.7-2.9-2.6-4.3l-2.8-4.8c-1-1.6-2.2-3.1-3.3-4.7l-2.5-4a39 39 0 0 0-3.5-4.8c-.8-1-1.5-1.9-2-2.9l-2.4-3.6-2.6-3.4-1.2-1.9-.2-.5-.3-.6-.2-.6a6 6 0 0 1-.1-.8v-4.4l.2-4.2c0-1.6.2-3.1.3-4.7l.3-5.6.1-5v-2.9c0-.8.2-1.4 1-1.8 0 0 .1-.2.2-.1l1.4.5c.2.2.2.7.3 1v1.9Zm150.2 59.2a358.6 358.6 0 0 1-20.5-24.4l-7.5-9.6c-4.7-6.1-9.2-12.3-13.7-18.5-2.8-3.8-5.7-7.4-8.4-11.2L613 172a675.4 675.4 0 0 0-13-17.7c-1.9-2.5-3.8-5.1-6-7.4-.5-.8-1.3-1.4-2-2l-1-.3-1.6-.3-6.4-.8-22.5-2.7-5-.6-2.6-.4-1.2-.2-.7-.1-.4-.1s-.3 0-.5-.2l-.6-.3a5.3 5.3 0 0 1-1-1.1 20 20 0 0 1-2-3.5l-.6-1.1-.7-1.4-.5-1.2-.3-.5-.1-.3v-.2c-.1 0-.2 0 0 0l1.7-1.3.8-.4.2-.1v-.1l.3-.1.7-.6c1.9-1.3 3.5-3 5-4.7 1.8-2.3 3.1-4.9 4.5-7.4l.4-1.2c.8-2.7 1.8-4.9 2.4-7.4.1-.4.4-.6.6-.9v1.4c0 2.1-.3 4.2-.7 6.3a28.4 28.4 0 0 1-10.6 15.8l-1.2.8-.2.2h-.2l-.3.3-.4.3.1.3.5.9a30 30 0 0 0 2.6 4.6c.3.5.4.6.7.6l1.5.3 3 .5 6.4.8 14 1.8c4.8.5 9.6.9 14.5 1.6l1.5.3c.6.2 1.2.5 1.7.9a54.5 54.5 0 0 1 6.1 6.7l9.4 12.2c1.8 2.3 3.5 4.8 5.2 7.3l6.1 9c2 2.8 4.3 5.5 6.4 8.3l6.3 8.6 12.7 16.9 7.2 9.4a417.5 417.5 0 0 0 22.1 25.8c1.4 1.4 2.4 2.7 2.6 4v.4c-.7 0-1.2.2-2 0l-2-1.7-.2-.2-3-3.2ZM487.3 84.7A53 53 0 0 0 486 91l-.2 1.6-.2 1.7c-.2 1-.2 2.2-.2 3.3l-.2 3.2v3.3l.1 1.9.2 1.9.5 3.7c.5 2.3 1 4.7 1.7 7a30 30 0 0 0 3.3 6.1l.3.4.4.4.7.8.7.8.4.4.4.3a30 30 0 0 0 10.6 6 36 36 0 0 0 7.4 1.6 68.4 68.4 0 0 0 16-.5l2.3-.5 1.8-.4h.3l.2.4.3 1a23.2 23.2 0 0 1 .9 4.5v1.8l.3 2c0 .5-.3 1-.6 1.5l-.5.8a58.4 58.4 0 0 1-3.2 4.5l-8 10.1-.9 1-3 3.6a24.5 24.5 0 0 1-4.6 4.8c-1.2 1.5-2.7 2-4 3-.3.2-.6.1-.8.2l.4-.8 2.4-3.1 3.3-3.9c2.9-3.6 6-7 8.7-10.7l5-6.4 2.6-3.5a18.2 18.2 0 0 0 .8-1.1v-.4l-.3-2.2a29 29 0 0 0-.4-3.3v-.3l-.1-.1-.1-.2v-.2h-.4l-.4.1h-.2l-.3.1-.5.1-1.2.3a92 92 0 0 1-17.5.4c-2-.2-3.9-.6-5.8-1.3a39.1 39.1 0 0 1-12.4-6.8 28.5 28.5 0 0 1-7.5-12l-.9-3.4-.3-1.7-.3-1.7-.3-2-.2-1.8-.1-2v-1.9c-.2-3 0-6.1.2-9.1l.2-2.1.4-2c0-.7.2-1.4.3-2l.2-1.1.2-1 .3-1.2.3-1.1.6-2.2c.4-1.3 1-2.2 1.9-2.6 0 0 .2-.1.2 0 .4.4.8.7 1 1.2.1.4 0 1-.1 1.6v.2l-1 2.6h.1ZM597 190.3c2.2 2 4.4 4.1 6.5 6.3l3 3.2 3.5 3.6 6.8 6.9 4.4 4 3.9 3.8 3.7 3.6c2 1.8 4 3.6 5.9 5.6 1.2 1.4 2.6 2.5 3.9 3.8l6.8 6.6 6 6 .7.6 2.1 2.2a10 10 0 0 1 2.4 3l.4.4c.9.9 1 2.1 1.5 3.2l-.1.6c-.2 0-.4-.2-.5-.3l-2-1.7-2.3-2.4c-2.2-2.1-4.2-4.4-6.5-6.4-1.4-1.2-2.6-2.5-3.8-3.8-1.4-1.4-2.7-2.8-4.2-4.1l-4.6-4.1-3.4-3.5c-1.5-1.6-3-3-4.8-4.3-1-.8-1.8-1.7-2.7-2.6-1-1.1-2-2.3-3.1-3.3-1-1-2.3-1.9-3.4-2.9l-3.2-3-6.3-6.3-3.4-3.7-4.2-4.2a339 339 0 0 0-3.8-3.8l-2.2-2c-.6-.6-1-1.2-.8-2l.1-.3 1.4-.6c.3 0 .7.3 1 .5l1.4 1.4Z"/><path fill="#193560" d="m602 196.8 1 6.4.4 3.2.5 3.7 1 7 .3 2 .1.6.1.5.1.2.2.4a34.8 34.8 0 0 0 4.3 6.2c1.2 1.5 2.5 3 3.6 4.6.7 1.1 1.6 2 2.5 3l4.4 5.3 4 4.7.3.5 1.5 1.7c.6.7 1.1 1.5 1.4 2.4l.3.3c.6.7.5 1.7.6 2.6l-.2.6-.4-.3-1.3-1.3c-.6-.6-1-1.3-1.6-1.8-1.5-1.7-2.7-3.6-4.3-5-1-1-1.7-2-2.5-3l-2.7-3.4-3-3.3-2.2-2.9-3-3.5c-.7-.7-1.2-1.4-1.7-2.2-.6-1-1-2-1.7-3l-.5-.7a8 8 0 0 1-.4-.8l-.2-.3v-.3a8.5 8.5 0 0 1-.4-1.4l-.5-3.1-1-6.4-.3-3.6-.6-4.2a226 226 0 0 0-.7-3.9l-.4-2.1a1.3 1.3 0 0 1 .6-1.6h1.7l.5.8.2 1.4Zm-79.2-30.2c1.5 2.3 3.2 4.6 4.8 6.8l2.4 3.3a47.2 47.2 0 0 0 6.3 6.7 12.6 12.6 0 0 0 5.9 3.1c.7 0 1.4 0 2.1-.3.6-.3 1.2-.7 1.7-1.2l1.6-1.9c1-1.3 1.8-2.6 2.5-4l3.5-6.7c.9-1.5 1.5-3.1 2.2-4.7A231.2 231.2 0 0 0 562 152l.3-.7 1-2.7c.4-1.2 1-2.3 1.7-3.3l.2-.4c.4-1.2 1.4-1.8 2.2-2.6l.5-.1v.5l-.6 2.4-1.2 3c-.9 2.7-2.2 5.3-3 8-.5 1.7-1.2 3.2-1.9 4.8L559 166c-.7 1.8-1.3 3.7-2.1 5.5-.6 1.4-1.4 2.8-2.2 4.2-.9 1.8-1.9 3.6-2.7 5.5a21 21 0 0 1-6.3 7.2 4.6 4.6 0 0 1-1.2.6l-.7.2h-2a11 11 0 0 1-4.5-1.7 32.6 32.6 0 0 1-6.7-5.7l-3-3.7a181.8 181.8 0 0 1-8-11.1c-.5-.7-.7-1.3-.4-2 0-.2.1-.3.2-.3l1.4-.3c.4 0 .6.4.9.6v.1l1 1.5Z"/><path fill="#193560" d="M524.6 168c1.4-.1 2.7-.5 4.1-.8.7-.1 1.4-.1 2-.3.9 0 1.6-.3 2.4-.5l2.2-.6 2.2-.7 2.5-1.3 2.5-1 2.1-1 1.7-1a17 17 0 0 1 1.8-.8c.8-.3 1.5-.8 2.3-1.2l3.9-2.3 3.4-2.1.3-.2 1.3-.8c.5-.4 1-.6 1.7-.6h.3c.5-.4 1.3 0 2 0l.4.3-.2.3-1 .8-1.3 1-1.9 1-1.8 1.3c-.7.6-1.5.9-2.2 1.3l-2.5 1.4-1.3.8-1.2.9-2.2 1c-.9.4-1.8.9-2.7 1.6l-1.6.8-2.1.7-1.9 1c-.6.4-1.3.6-2 .9-1.4.4-2.8 1-4.2 1.3l-2.4.4-2.8.6-2.6.5-1.4.3c-.4 0-.8 0-1.1-.7v-1.7l.5-.4.8-.1Zm-34.1 30.7 1.3.6c.2 0 .4.3.6.4l.8.4.8.2.8.2 1-.1h.9l.9-.2c.4-.2.8-.2 1.3-.2l.9-.3 1.4-.6 1.3-.6h.1c.2 0 .4-.2.5-.3.2-.1.4-.2.7 0h.2l1 .6.3.4v.1a2 2 0 0 1-.4.4l-.6.3-.7.4c-.3 0-.6.2-.8.4a2 2 0 0 1-.9.4c-.4 0-.7.2-1 .3l-1.1.6-1 .1c-.4 0-.8.2-1.2.4a1 1 0 0 1-.7.1l-.9-.1-.9.2h-.9l-1.7-.4-.9-.5-1-.5-1-.5-.5-.2c-.2 0-.2-.3 0-.9l.1-.2.8-1 .3-.1.2.1Z"/><path fill="#193560" d="m497.8 155-2.3 14.9-1.3 7.3-1.4 8.4-2.5 16c-.5 3.2-.8 6.5-1.2 9.7l-1.4 9.2-1 8.5-.4 3.4a94.2 94.2 0 0 0-.4 9.9c.2 2.8 1.2 5.6 3.3 6.8.9.6 2 .9 3 1h.7l.5-.2 1.5-.9c1-.7 1.9-1.6 2.8-2.4l2.6-2.9c3-3.5 5.9-7.3 8.7-11.1l.8-1.1 3-4.1a32.5 32.5 0 0 1 4.5-5.9c1.2-1.7 2.7-2.6 4-3.9.2-.2.5-.2.8-.3l-.4.9-2.3 3.8-3.1 4.6c-2.8 4.3-6 8.2-9 12.5a70.9 70.9 0 0 1-11.3 12 7.8 7.8 0 0 1-3 1.4h-1a9.7 9.7 0 0 1-4-1.3c-1.8-1-3-2.7-3.7-4.4-.5-1.4-.8-2.9-1-4.3v-4.3c0-1.9.2-3.7.4-5.5l.5-5.4c.1-2 .5-4.1.8-6.2.4-2.5 1-5 1.3-7.6l.7-7.3 1-7.4 2.3-14.8 1.5-8.2 1.6-9.8 1.4-8.9.7-5c.2-1.3.5-2.4 1.3-3 .1-.1.2-.3.3-.2.4.3 1 .6 1.2 1.1.2.4.1 1.2.1 1.8v.2l-.5 3Z"/><path fill="#FFCEB2" d="m506.7 157 .6-7.2s3.3-8.8 1-13.7c-2.2-5-10.6-2.5-14.2-6.4-4.1-4.4-9.4-10.2-11.6-26.5-1-6.4-4.3 4.3-3.9 11.8.5 7.4.8 17.7 3.5 21.3 2.7 3.6 13.6 7.8 13.9 10.5l1 2 9.7 8.2Z"/><path fill="#193560" d="m503.3 212.7.5-18.2.5-8.9.5-10.3.4-9.8.2-4.9.2-2.4v-1.3l.1-1.2.3-3 .2-3.2.1-.4.1-.4.2-.6a39.9 39.9 0 0 0 1-4.2 18.6 18.6 0 0 0 0-6.4l-.3-.6-.2-.5a3.6 3.6 0 0 0-1.5-1.5c-1.2-.7-2.8-1-4.5-1.2-1.7-.3-3.5-.5-5.4-1.2a8 8 0 0 1-2.1-1.3l-.5-.4-.4-.4-.7-.8a31 31 0 0 1-7-10.7 62 62 0 0 1-3.2-10.8l-.4-1.9v-.5h-.1s0-.1 0 0l-.2.1v.3a34.3 34.3 0 0 0-.8 8.9v2.1l.4 4.3a82 82 0 0 0 1 8.4 16.8 16.8 0 0 0 1 4.3l.3.5a5.3 5.3 0 0 0 1 1.4l3 2.2a45.8 45.8 0 0 1 4 3 12.3 12.3 0 0 1 4.7 4.9.7.7 0 0 1-.2.7l-.5-.6a10 10 0 0 0-2-1.5l-2.2-1.4a196.7 196.7 0 0 1-7.7-5 8.4 8.4 0 0 1-1.8-1.7c-1-1.5-1.4-3-1.7-4.6-.7-3.1-1-6.2-1.4-9.3l-.4-5.4v-2.8a30.6 30.6 0 0 1 .9-8.8v-.4l.2-.5a20.1 20.1 0 0 1 1.1-3c.2-.4.6-.8 1-1.1.1-.2.4-.3.6-.3a.9.9 0 0 1 .7.2c.3.4.6.8.7 1.3l.5 2 .4 2.1.4 1.5c.4 2 1 4 1.6 6a31.7 31.7 0 0 0 7.6 13.9l1 1 .4.4.1.1.1.1.5.4a7 7 0 0 0 2.6 1l3.6.5c1.3.2 2.7.6 4 1 .8.4 1.7.9 2.4 1.5a6 6 0 0 1 1.6 2.5c.6 1.7.7 3.4.6 5 0 1.7-.2 3.2-.4 4.8l-.5 2.3-.3 1-.1.7-.2.4v.9l-.1 1.2-.2 2.2-.3 4.4-.8 18-.5 10-.5 12-.4 11-.1 6c0 1.7-.2 3-1 4l-.2.2c-.5-.4-1-.6-1.4-1.2-.2-.4-.2-1.4-.3-2.2v-.2l.1-3.8Z"/><path fill="#fff" d="M428 101.7s13.5-2.7 25.4 5.5a78 78 0 0 1 28.6 54.4c.3 17.7-11.9 27-22 28.9l-51.5 7.2c-3.2.8-7.2-.7-14.6-6.3-14.2-10.9-12.7-46.8-.8-69.1C405 99.9 425.4 102 425.4 102l2.5-.4Z"/><path fill="#fff" d="m412.6 261.6-.6-34.3-.8 1.4s-8.8 17.3-15.2 18c-6.4.7-9.6-3.8-5.7-17 2.2-7.6 7.8-25.7 7.8-25.7l13.3-11 45.8-6.5s28.6 27 56.9 46l.5 1c.3 1.5.9 6-3.8 6.7 0 0-28.4-10-40.4-17.9l-2.9-1.5a1023 1023 0 0 0 12.9 37.2l-67.8 3.6Z"/><path fill="#FFDAC6" d="m398.4 186.5-7.2-33.8 3.8-26.2 20.8-5.6 32.8-4.1a98.9 98.9 0 0 1 17.4 48.1c.8 20.5-11.3 25-17.4 24.6v6.2c-9.8 10.6-24 7.8-29.7 5.1v-7.2l-9.2-1-11.3-6.1Z"/><path fill="#FFCEB2" d="M515.2 232.6s6 .8 13.6 0c7.7-1 13.8-2.7 14.3.3.4 3-17.1 9.4-21.6 11.5-4.5 2.2-2.6 7.4-6.4 9.7-2.8 1.8-3.3-4.2-3.4-8 0-2.4-.5-4.7-1.5-6.8l4-.6 1-6.1Z"/><path fill="#885A40" d="M425.9 101.1S405.7 99 392.3 124c-13.4 25-10.3 62.7 3.7 70 12.2 6.4 13.3 3 13.3 3s0-1.6.6-2.6c.5-1 2.2-1.8 2.2-1.8s-11.5-2.7-15.3-21C393 153 399 143 399 143s1.9-11.7 21-17c19.1-5.3 28.5 4.5 28.5 4.5s12.7 8.5 15.5 28c2.8 19.6-8.5 27-8.5 27l7.5 3.7s18-5.8 19-25.7c.8-16.3-14.3-65-56.1-62.4Z"/><path fill="#D1D7DF" d="M413.7 192.4s-2.5 1.1-2.2 5c.2 4 1.1 64.2 1.1 64.2l67.2-3.7-1.3-6.6s-10.1-25.9-13.7-38a367.2 367.2 0 0 1-6.6-26c0-.6-.2-2.6-2.3-2.6-2.2.1-1.5 3-7.4 5 0 0-.3 15.5-.9 17.3-.6 1.8-15.2 7.5-25 5.2-3-.7-2.9-18.2-2.9-18.2l-6-1.6Z"/><path fill="#8C9AAF" d="M397.4 223s-5.8 20-2 23.6c3.8 3.6 16.5-17.8 16.5-17.8l-.2-30.8s-1.4-1.5-3-2.2c-1.7-.7-4-2-6.4 7.2-2.5 9.2-4.9 20-4.9 20Zm21.9-22.5a54 54 0 0 0 3 11.7c1.3 1.4 21.4.8 25-5 1.8-3.1 1.1-11.8 1.1-11.8s-10.2 7.8-15.7 8.4c-5.4.6-13.4-3.3-13.4-3.3Zm40.3-5.9s20.5 19.3 33.4 27.8c13 8.5 21.4 12.9 21.4 12.9s-.3 5-3.6 4.9c-3.4 0-31.7-11.6-44.3-20.4l-6.9-25.2Z"/><path fill="#fff" d="m423 219.5.1-.3a.7.7 0 0 0 .2-.5.7.7 0 0 0-.2-.5l-.5-.9v-.2l-.2-.1c-.4-.5-.9-1.2-1.6-1.2a4 4 0 0 1-1.3-.2h-.5c-.2-.2-.3 0-.5 0l-.1.1c-.4.2-1 0-1 .5-.3-.1-.3.2-.4.3-.3.1-.3.4-.6.5l-.1.7c0 .2-.2.3-.3.4 0 .3-.4.5-.4.8-.2.5-.2 1.1 0 1.7.4.1.2.4.5.5.2 0 .2.2.2.4l.5 1c.2.3.5.6.9.8l.4.2.6-.2.5.1.6.3a.9.9 0 0 0 .7-.3c.3-.2.7 0 .8-.4.2.2.3 0 .4-.2 0-.2.4-.1.4-.5h.3l.1-.2.1-.3.2-.7c0-.3-.1-.6 0-.8v-.5l-.1-.2h.2Zm1.4 34c.2 0 .2-.3.2-.4a.7.7 0 0 0 0-1l-.5-.8v-.2l-.2-.1c-.4-.5-.8-1.2-1.6-1.2a4 4 0 0 1-1.3-.2c-.1 0-.3.1-.5-.1h-.5l-.1.2c-.4.2-.9 0-1 .5-.3-.1-.3.2-.4.3-.3 0-.3.3-.6.4l-.1.8-.2.4-.5.7a2.7 2.7 0 0 0 0 1.8c.4 0 .2.4.5.5.2 0 .2.2.2.3l.5 1c.2.4.5.7.9.9l.4.1.6-.1h.5l.6.3a.9.9 0 0 0 .7-.2c.3-.2.7 0 .8-.4.3.1.3-.1.4-.2.1-.2.4-.2.4-.5h.3l.1-.2.1-.4a6.1 6.1 0 0 0 .2-.6c0-.3-.1-.6 0-.8v-.3a.3.3 0 0 0-.1-.4l.2-.1Zm22.6-5.3.1-.4a.7.7 0 0 0 .2-.5.7.7 0 0 0-.2-.5c-.3-.2-.3-.5-.5-.8v-.2l-.2-.2c-.5-.4-.9-1.1-1.6-1.1a4 4 0 0 1-1.3-.3h-.5c-.2-.2-.3 0-.5 0l-.1.1c-.4.2-.9 0-1 .6-.3-.2-.3.2-.4.2-.3.1-.3.4-.6.5l-.1.8-.2.4-.5.7c-.2.6-.2 1.2 0 1.7.4.1.2.4.5.5.2 0 .1.3.2.4 0 .4.3.7.5 1 .2.4.5.6.9.8l.4.2.6-.2.5.1c.2.2.3.3.6.3a.8.8 0 0 0 .7-.2c.2-.3.7 0 .8-.5.2.2.3 0 .4-.1 0-.2.4-.2.4-.6h.3l.1-.2.1-.3.2-.6c0-.3-.1-.6 0-.8v-.6l-.1-.2h.2Zm23.5-.8.2-.3a.7.7 0 0 0 .2-.5.7.7 0 0 0-.2-.5c-.3-.3-.3-.6-.5-.9v-.2l-.2-.1c-.5-.5-.9-1.2-1.6-1.2a4 4 0 0 1-1.3-.2h-.6c-.1-.2-.2 0-.4 0l-.2.1c-.3.2-.8 0-1 .5-.3-.1-.2.2-.4.3-.2 0-.2.4-.5.4l-.1.8c0 .2-.2.3-.3.4 0 .3-.4.5-.5.8v1.7h.1c.4.1.2.4.5.5.2 0 .1.2.2.4 0 .3.2.7.5 1 .2.3.5.6.9.8l.4.2.6-.2.5.1.5.3a.9.9 0 0 0 .8-.3c.2-.2.6 0 .8-.4.2.2.3 0 .3-.2.2-.2.5-.2.5-.5 0-.1.2 0 .2 0l.2-.2.1-.3.1-.7v-1a.3.3 0 0 0 0-.5h.2ZM430 235.8c.2 0 .2-.3.3-.3a.7.7 0 0 0 .1-.5.7.7 0 0 0-.2-.5l-.4-.9v-.2l-.2-.1c-.5-.5-1-1.1-1.7-1.1a4 4 0 0 1-1.2-.3h-.6c-.1-.2-.3 0-.4 0l-.2.1c-.3.2-.9 0-1 .6-.3-.2-.3.1-.4.2l-.5.5-.2.7-.2.4-.5.8c-.2.5-.1 1.1 0 1.7.5.1.3.4.6.5.2 0 .1.2.1.4l.5 1 1 .8.4.2.5-.2.5.1.6.3a.9.9 0 0 0 .8-.3c.2-.2.6 0 .7-.4.3.2.3 0 .4-.2.1-.2.5-.1.5-.5h.2l.2-.2v-.3l.2-.7v-1a.3.3 0 0 0 0-.5h.2Zm32-19.6c.2-.1.2-.3.3-.4a.7.7 0 0 0 .2-.5.7.7 0 0 0-.3-.5l-.4-.8v-.2l-.2-.2c-.5-.4-.9-1.1-1.7-1.1a4 4 0 0 1-1.2-.3c-.2 0-.4.2-.6 0-.1-.2-.2 0-.4 0l-.2.1c-.3.2-.8 0-1 .6-.3-.2-.2.2-.4.2l-.5.5-.2.8-.2.4c0 .2-.4.4-.5.7-.2.6-.1 1.2 0 1.7.5.1.3.4.6.5.2 0 .1.2.1.4l.5 1c.3.4.6.6 1 .8l.4.2.5-.2.5.1.6.3a.9.9 0 0 0 .8-.2c.2-.3.6 0 .7-.5.3.2.3 0 .4-.1.1-.2.5-.2.5-.6h.2l.2-.2v-.3l.2-.6v-1.1a.3.3 0 0 0 0-.5h.2Zm-6.5-16.4.2-.3a.7.7 0 0 0 .2-.5.7.7 0 0 0-.3-.5l-.4-.8v-.2l-.3-.2c-.4-.4-.8-1.1-1.6-1.1a4 4 0 0 1-1.2-.3h-.6c-.1-.2-.3 0-.4 0l-.2.1c-.3.2-.9 0-1 .6-.3-.2-.3.1-.4.2l-.5.5-.2.7-.2.5-.5.7c-.2.5-.2 1.2 0 1.7.5.1.2.4.5.5.2 0 .2.2.2.4l.5 1 .9.8.5.2.5-.2.6.1c.1.2.3.3.5.3a.9.9 0 0 0 .8-.2c.2-.3.6 0 .8-.5.2.2.3 0 .3-.1.2-.3.5-.2.5-.6h.2l.2-.2.1-.3.1-.6v-1.1a.3.3 0 0 0 0-.5h.2Zm-13.4 24.6c.2 0 .2-.2.2-.3a.7.7 0 0 0 .2-.5.7.7 0 0 0-.2-.5l-.5-.8v-.3h-.2c-.4-.5-.8-1.2-1.6-1.2a4 4 0 0 1-1.3-.3h-.5c-.2-.2-.3 0-.4 0l-.2.1c-.4.2-.9 0-1 .6-.3-.2-.3.1-.4.2l-.5.5-.2.7-.2.4-.5.8a2.7 2.7 0 0 0 0 1.7c.5.1.2.4.5.5.2 0 .2.2.2.4l.5 1c.2.3.5.6.9.8l.4.2.6-.2.5.1.6.3a.9.9 0 0 0 .7-.3c.3-.2.7 0 .8-.4.3.2.3 0 .4-.2.1-.2.4-.1.4-.5h.3l.1-.2.2-.3a7.1 7.1 0 0 0 0-.7c.1-.2 0-.5 0-.8l.1-.2a.3.3 0 0 0 0-.5h.1Zm16.2 9.9c.2 0 .2-.3.2-.4a.7.7 0 0 0 .2-.4.7.7 0 0 0-.2-.5l-.5-.9v-.2l-.2-.1c-.4-.5-.8-1.2-1.6-1.2a4 4 0 0 1-1.3-.2c-.1 0-.3.1-.5-.1-.2-.1-.3 0-.4 0l-.2.2c-.4.2-.9 0-1 .5-.3-.1-.3.2-.4.3-.2 0-.3.3-.5.4l-.2.8-.2.4-.5.7a2.7 2.7 0 0 0 0 1.8c.5 0 .2.4.5.5.2 0 .2.2.2.3l.5 1c.2.4.5.7.9.9l.4.1.6-.1h.5l.6.3a.9.9 0 0 0 .7-.2c.3-.2.7 0 .8-.4.3.1.3-.1.4-.2.1-.2.4-.2.4-.5h.3l.2-.2v-.4l.2-.6c0-.3-.1-.6 0-.8v-.3a.3.3 0 0 0 0-.4l.1-.1Z"/><path fill="#193560" d="M397.7 150.5c-1 4.9-1.2 9.9-.8 14.9 0 1.2 0 2.4.2 3.7l.2 1.8.3 1.9a25.3 25.3 0 0 0 2.6 7.9 23 23 0 0 0 11.8 10.1 47.6 47.6 0 0 0 43.3-7 24 24 0 0 0 8.1-17.5c.1-2.4 0-4.7-.4-7l-.7-3.5-.5-1.7-.5-1.7-.4-1.4a38 38 0 0 0-1.8-4.7c-1-2-2-3.9-2.8-5.8 0-.3-.2-.6-.4-.9-1.2-1.7-1.7-3.3-2.6-5l-.1-.8.7.7a28.1 28.1 0 0 1 6 8.5 80.7 80.7 0 0 1 5.1 15 31.2 31.2 0 0 1-2 19.3 26.6 26.6 0 0 1-13.9 13.3 65 65 0 0 1-10.6 3.9 62 62 0 0 1-22.2.2 30.9 30.9 0 0 1-14.1-7.4 25.2 25.2 0 0 1-4.8-6.5 30 30 0 0 1-1.5-4.2l-.5-2.2-.3-2.1a70.7 70.7 0 0 1 .6-24.9c.4-1.4.9-2.5 1.8-3l.2-.2c.3.5.7.8.9 1.4.1.3-.1 1.1-.2 1.7v.2l-.7 3Z"/><path fill="#193560" d="m422.1 154.2-1.6-.7c-.3 0-.5-.3-.8-.4l-.9-.2c-.5 0-1 0-1.2.4l-.1.2v.3l-.1.2v.3a9 9 0 0 0-.2.9v.5c0 .1 0 .3.2.4l.4 1.5.5.8.3.3.3.3.2.1h.5l.6-.2h.2l.4-.2a.7.7 0 0 1 .8 0h.1c.3-.2.8.2 1.3.3l.3.3v.2l-.4.5-.7.5c-.6.4-1.4.5-2.2.8l-.7.2-.4-.1h-.3l-.2-.1c-.6-.3-1-.7-1.3-1l-1.2-1.2-.4-1.2c-.1-.6-.4-1.1-.6-1.6-.2-.3-.2-.7-.1-1v-.7c.2-.2.2-.4.2-.6.1-.4 0-.9.2-1.3l.3-.7.6-.6a4.2 4.2 0 0 1 1.4-.8l.7-.2h.7l.7.2.7.2a17.7 17.7 0 0 1 3.3 1.3c.2 0 .3.3 0 1v.1c-.3.4-.5.8-.8 1-.1.2-.2.2-.3.2l-.3-.2Z"/><path fill="#fff" d="m413.8 167 28.6-5.1a28 28 0 0 1-6.1 20.5c.3.3-3.7 5.2-11.3 2-7.1-3-10.2-8.5-11.2-17.4Z"/><path fill="#193560" d="m414.3 166.1 8-1.5 4-.5 4.6-.7 8.8-1.4 3.2-.6 1.1-.2h.3v.8a25.2 25.2 0 0 1-.3 7.5c-.2 1.6-.6 3.2-1 4.7a16.2 16.2 0 0 1-8.2 10.3c-1.4.7-3 1.2-4.5 1.4a11 11 0 0 1-5-.4 18 18 0 0 1-7-4.8c0-.2-.2-.4-.4-.6l-1.7-2.4c-.8-1-1.4-2.1-1.6-3.3l-.2-.5c-.6-1-.3-2.2-.3-3.2 0-.2.1-.3.3-.5l.3.4 1 2 1.5 2.7 2.3 3.3c.9 1.1 1.8 2 3 2.8 1.2.9 2.5 1.7 4 2.1a8.4 8.4 0 0 0 3.6.3l1.3-.3a14.6 14.6 0 0 0 7.3-5.6c1-1.5 1.8-3.3 2-5.1l.8-3.2c.3-1.3.5-2.7.6-4V164a.1.1 0 0 0-.2 0l-1 .2-2.1.4-8 1.3-4.5.5-5.4 1a256.8 256.8 0 0 0-7.5 1.4c-.7.1-1.4.1-1.9-.4l-.1-.2c0-.5 0-1 .2-1.4l1-.5 1.7-.3Zm24-16.1c1.3-.2 2.3-1.8 2.1-3.7-.2-1.9-1.4-3.3-2.8-3.2-1.3.1-2.2 1.8-2 3.7.1 1.8 1.4 3.2 2.7 3.1Zm-28.8 1.3c.1 1.8-.7 3.3-2 3.4-1.2.1-2.3-1.2-2.5-3-.2-1.6.7-3.1 2-3.3 1.2 0 2.3 1.2 2.5 3Z"/><path fill="#193560" d="M420.7 103.7a36 36 0 0 0-16.3 6.6 33 33 0 0 0-9 9.8 48 48 0 0 0-5.8 13.3c-.8 2.4-1.6 4.8-2.2 7.3a132.2 132.2 0 0 0-2.3 17.9 57.7 57.7 0 0 0 4.5 25.2c.9 1.6 2 3.1 3.2 4.5l.7.8.7.6.8.7 1.6 1.2a38.2 38.2 0 0 1 4.8 3.5c1.5.8 2.4 1.9 3.7 2.6l.5.6a4 4 0 0 1-.8 0 14 14 0 0 1-3.6-1.3 40.7 40.7 0 0 1-6.7-4.2l-1.2-1-1.3-1.1a27.5 27.5 0 0 1-6.9-12.1A69.3 69.3 0 0 1 383 155l.9-9c0-.8.2-1.7.4-2.5.1-1 .4-1.8.6-2.6.5-2.1 1.2-4.1 1.8-6.2a7679.2 7679.2 0 0 1 1.8-6l1.2-2.9 1.3-2.8a52.1 52.1 0 0 1 7.1-10.5 36.2 36.2 0 0 1 12.8-8.8 36.4 36.4 0 0 1 11.6-2.7c1.2-.1 2.2 0 2.8.7 0 .1.2.2.1.3-.3.4-.4.8-.8 1.2-.3.2-1 .2-1.4.3h-.1c-.8 0-1.6 0-2.5.2Zm12.3-3.8a39 39 0 0 1 8 .7l1.7.3 3.1 1c2 .6 4 1.7 5.8 2.8l1.6 1 .8.5.7.6 1.5 1.1 1.3 1.2c3.5 3.1 6.5 6.7 9.2 10.3l2.5 3.4c.8 1.2 1.7 2.3 2.4 3.5l2 3.4 1 1.7.4.9.4.9c.6 1 1.1 2.2 1.6 3.3l1.5 3.4a52.5 52.5 0 0 1 3.8 13l.3 2 .3 2 .1.9.1 1a35 35 0 0 1-1.3 13.8 28 28 0 0 1-6.2 10.9l-1 .8-.3.4-.5.4-.8.7-1.8 1.4a16.4 16.4 0 0 1-3.8 2.1l-1.3.4c-.3 0-.6.2-.8.3a6.5 6.5 0 0 1-2.5.4h-2.3c-.3 0-.4-.3-.6-.4l.7-.3 1.7-.5.9-.3.8-.3 2.1-1a29.4 29.4 0 0 0 7-4.8l1.1-1.1 1-1.2c.7-.8 1.3-1.7 1.8-2.6l.8-1.6.5-.8.4-.9.7-1.7.6-1.7.5-2 .2-1v-.4l.2-.5.2-2V161l-.2-2.1-.6-4.2-.3-1.7-.4-1.7c-.1-1.1-.4-2.2-.7-3.3-.4-1.4-.8-2.9-1.4-4.3-.5-1.4-1-2.8-1.7-4l-1.1-2.4-1.1-2.4-.7-1.4-.7-1.5-1.5-2.8c-.5-1-1-1.7-1.7-2.6l-1.8-2.4-.8-1.3-1-1.2-1.8-2.5-2-2.4-2-2.3-2.2-2.2a16 16 0 0 0-1-1l-1.2-1-1.3-1.1-1.3-1-1.4-1-.7-.5-.7-.4a35.9 35.9 0 0 0-18.9-4c-1.1.1-2 .1-2.8-.4l-.2-.2c.2-.5.3-1 .7-1.4.2-.2 1-.3 1.5-.5h2.8Z"/><path fill="#193560" d="m445.8 139.8-.4-1.6v-.9l-.2-.9c-.1-.5-.4-1-.7-1.6-.2-.2-.4-.5-.7-.6a4 4 0 0 0-.6-.6l-.7-.2H441a3.3 3.3 0 0 0-1.3 1l-.6 1.4-.2.6a.6.6 0 0 1-.5.5v.1c-.1.2-.7.3-1 .4a3 3 0 0 1-.5 0l-.1-.6.2-.7c0-.7.5-1.2.6-1.8.1-.4.4-.7.7-1l.4-.5.6-.4.5-.5.7-.4 1.1-.1h1.7l.9.3.8.8.9.6.6.9c.3.5.6 1.1.8 1.8l.1 1 .3 1.2.1 1.1.2.6c0 .2-.1.3-.6.5h-1.6v-.4Zm-42.1 3.8.3-1.6v-.8l.3-1 .6-1.5.7-.7.7-.5.7-.2h1.5l.3.2 1 1 .5 1.1v.2c.2.1.2.3.3.4a.6.6 0 0 0 .5.6c0 .3.7.4 1 .5h.4l.1-.1v-.6l-.1-.6c-.1-.7-.6-1.2-.7-1.9 0-.4-.4-.6-.6-1l-.5-.4-.5-.4-.6-.5-.6-.4c-.4-.1-.8-.2-1.2-.1h-1.6c-.3 0-.7 0-1 .3l-.7.8c-.3.2-.7.3-1 .6l-.5.8c-.4.6-.6 1.2-.8 1.8l-.2 1-.2 1.3-.2 1-.1.7c0 .1 0 .3.6.5h1.2l.4-.1v-.4Zm46.2-30.9c2 1.9 4 3.9 5.8 6l1.2 1.7 1.2 1.7 1.3 2 1.3 2 1.2 1.8 1.2 2 2.1 3.9.7 1.2.6 1.2c.5.8 1 1.6 1.3 2.4l1.1 2.3 1 2.4 1 2.1.9 2.2a48 48 0 0 1 2.4 7.3l.3 1.2.2 1.3.4 2.5a29.3 29.3 0 0 1-1.6 13 26 26 0 0 1-1.8 3.6l-.5.7-1.7 2.3c-.8 1-1.7 1.8-2.8 2.5l-.4.3c-1 .7-2 1-3 1.2l-.3-.1.3-.3a27.6 27.6 0 0 0 4.1-3.5c1.9-2 3.6-4.2 4.5-6.8.6-1.5 1-3 1.4-4.7a23 23 0 0 0-.2-10.7l-.2-1.1-.2-1.1-.6-2.2c-.2-1-.6-1.8-1-2.8-.2-.9-.7-1.8-1.1-2.6l-1.3-3.2-1.6-3.9-2-3.5-2-3.6-.9-1.8-1-1.7-1-1.8-1.2-1.7-2.5-3.8-1.6-2.1-1.7-2a53.6 53.6 0 0 0-5.4-5.4c-.6-.5-1-1-1.1-1.5v-.2a2 2 0 0 1 .9-.4l1 .5 1.3 1.2Zm-39.3 120.1a71.5 71.5 0 0 1-5.3 8 32.8 32.8 0 0 1-5.6 5.4 9 9 0 0 1-3.5 1.5l-.7.1h-1.4c-1 0-2-.4-2.8-.8-1-.5-1.7-1.2-2.3-2a8 8 0 0 1-1-2.7c-.5-2.2-.5-4.4-.2-6.6.3-2 .7-4 1.3-5.8l1.5-5.3c.7-2.8 1.5-5.6 2.4-8.3.7-1.8 1.1-3.7 1.6-5.5l1.5-4.8.4-1.6.4-1.2.2-.6v-.4h.1v-.1l3.8 1.6 6.9 3-.6 2.5-.3 1.4-.2.8c-.2 1-.5 2.1-.6 3.2a19 19 0 0 1-1.1 3.9l-.1.5c-.2 1.3-1 2.3-1.6 3.3 0 .2-.3.3-.5.4v-.6c0-1 0-1.9.2-2.8l.6-3.5.8-4.2.5-2 .2-1 .1-.6a6.3 6.3 0 0 0-.7-.2h-.2l-.3-.2-.6-.3-1.3-.5-2.6-1.2-.8-.4h-.2l-.2.4-.4 1.2-.4 1.5-1.6 6.3-1.6 5a62 62 0 0 0-1.7 6.6l-1.1 3.8c-.5 1.5-1 3-1.3 4.5a22.6 22.6 0 0 0 .4 8.5c.2.5.6 1 1 1.4l1.4.8 2 .2h.7l.2-.1.4-.1c.1 0 .3 0 .4-.2 1.3-.5 2.7-1.5 3.8-2.7a69.3 69.3 0 0 0 8.5-12.1c.5-.8 1-1.3 1.7-1.4h.3l.8 1-.2 1.2-.1.1-1 1.8v-.1Zm51.2-44 9.2 8.3 4.5 4.1a317 317 0 0 0 15.6 13.3c2 1.7 4.3 3.2 6.5 4.8l6.1 4.6 5.9 4.1 2.6 1.7 2.6 1.8a2.6 2.6 0 0 1 1.2 1.9l.1 1.4c.1 1 0 2-.4 3a5.4 5.4 0 0 1-4 3.5l-.6.2a2 2 0 0 1-.4 0l-.5-.1-.5-.2-1.8-.6a442.8 442.8 0 0 1-23.4-9.3l-1-.5-3.9-1.8a20.3 20.3 0 0 1-5.3-3.2c-.7-.4-1.4-.9-2-1.5l-1.5-1.7-.2-.6.8.2 1.5.9 1.6.8 4.1 2.2c3.8 1.8 7.6 3.7 11.5 5.2 2.3.8 4.6 1.9 6.9 2.8l7.6 3 4 1.4 2 .6a1.4 1.4 0 0 0 .3 0h.2l.4-.1.4-.2a3.1 3.1 0 0 0 1.6-1.8c.3-1 .4-2 .2-3v-.2l-.1-.2-.2-.2c-2-1.3-4-2.7-6.2-4l-4.2-3-5-4-5.1-3.4-5-3.9-4.7-3.9-4.7-4-5.2-4.6-6.1-5.5-5.6-5-3-2.9c-1-.7-1.5-1.5-1.5-2.4v-.3c.5-.1.9-.4 1.4-.3.4 0 .9.5 1.3.7l.1.1 1.9 1.8Z"/><path fill="#193560" d="m460.8 194.6 2 6.4.7 3.2 1 3.7 2.1 7 1.6 4.2 1.2 4 1.3 3.6a64 64 0 0 1 2 5.8l1.4 3.8 2.4 6.8 2.2 6 .2.6.8 2.1a7 7 0 0 1 .6 2.9l.1.4c.4.9 0 1.8-.1 2.7l-.3.4-.3-.3-.8-1.8-.9-2.4c-.9-2.1-1.4-4.4-2.4-6.5-.6-1.2-.9-2.5-1.3-3.8l-1.5-4.2-1.7-4.3c-.5-1.1-.8-2.3-1.2-3.5-.4-1.6-1-3-1.7-4.5l-1-2.7-.9-3.3-1.3-3-1-3.3-2-6.4-1-3.6-1.1-4.4-1.2-3.8a45 45 0 0 0-.8-3c0-.4.2-.6.4-.8l.2-.2h1.3l.6.7v.1l.4 1.4Zm-48 3.9.2 6.4-.2 3.2v10.5l.2 4.2v4l.3 3.6c.1 2 .2 3.9.1 5.8l.2 4a2150.6 2150.6 0 0 1 .4 12.8v2.8c0 1 0 1.9-.3 2.7 0 .2-.1.3 0 .4 0 1-.7 1.6-1 2.4l-.5.3-.2-.4-.2-1.9V257c-.1-2.1.1-4.3-.2-6.5v-3.8l-.1-4.2c0-1.5-.3-3-.4-4.4v-3.5c0-1.5 0-3-.3-4.6-.1-.9-.2-1.8-.1-2.7V224c0-1.1-.2-2.1-.3-3.2v-3.2c-.1-2.1-.2-4.2-.1-6.4l.1-3.5v-4.2a258.3 258.3 0 0 0 0-6.9l.7-.5.2-.1c.4 0 .9.2 1.2.4.3.1.3.4.4.7v1.4Zm36.8-6.1v6l-.3 3-.3 3.4c0 .7 0 1.3-.2 2a3 3 0 0 1-.8 1.5l-1 .9c-.8.4-1.5.8-2.3 1a25 25 0 0 1-7.5 2.3l-3.4.7a26 26 0 0 1-5.6.5l-3.8-.1c-.7-.1-1.3-.2-2-.5-.4-.1-.8-.4-1-.7-.3-.3-.6-.6-.7-1a18.5 18.5 0 0 1-1.2-3.4c-.4-1.8-.8-3.8-1-5.7v-.6l-.1-2c-.2-1-.1-1.9.2-2.7v-.4c0-.8.6-1.5 1-2.2 0-.2.3-.2.4-.3l.1.4.3 1.7v2.2c.3 2 .2 4 .7 6l.7 3.5a15.8 15.8 0 0 0 .8 2.6l.4.5.7.2 1 .1h5.1c1.4 0 2.8-.3 4.2-.7a15 15 0 0 1 2.4-.4l3-.5c1-.2 1.8-.7 2.7-1l2.5-1a7 7 0 0 0 1.3-.7l.4-.4v-.1l.3-2.3.3-3.3a91.4 91.4 0 0 0 .3-10.3c.1-.2.3-.4.6-.5l.2-.1 1.3.3c.2.2.2.5.3.7v1.4Zm66.2 38.9c2.7.2 5.5.3 8.2.3h4l4.7-.5 4.5-.6 2.3-.1c.9 0 1.7 0 2.5.3a2.6 2.6 0 0 1 1.8 1.7v.4c.2.4 0 1-.2 1.3l-.7.9-1.4 1.2c-1.5 1-3.1 1.8-4.7 2.6l-4.3 2.1a79.7 79.7 0 0 1-9.4 4l-1 .5-.5.3-.2.1-.2.2c-1 .7-1.5 1.8-2 3.1l-.6 2.2a8.2 8.2 0 0 1-2 3.2l-.4.4-.6.4-.7.3h-1a2 2 0 0 1-1.6-.8c-.6-.6-1-1.4-1.2-2.3a17 17 0 0 1-.4-2v-.9l-.2-3v-3.9c-.3-1 0-2-.1-3l.2-.6.3.5a13.2 13.2 0 0 1 1.4 5.5l.1 2.2a37.5 37.5 0 0 0 .4 4c.1.7.4 1.3.7 1.9l.3.3.2.2a.7.7 0 0 0 .6-.2c.6-.3 1.2-.8 1.6-1.4.8-1.4 1.1-3.3 1.9-5 .4-1 1-2 1.9-2.7l.3-.2.3-.2.7-.4 1.3-.7 4.3-1.7c1.8-.7 3.6-1.6 5.4-2.5 1-.6 2-1 3.1-1.5l3.8-1.9a11.4 11.4 0 0 0 2.2-1.7l.4-.6h-.1c0-.2-.1-.2-.2-.2l-1.1-.3c-1.3 0-2.6 0-4 .3l-4 .5a66 66 0 0 1-10.3.5 99 99 0 0 1-5.1-.3l-2.8-.2c-.8 0-1.4-.2-1.8-.8v-.2c.1-.4.3-.8.6-1 .2-.2.6-.2 1-.2l1.8.2Z"/><path fill="#FFCEB2" d="M404.2 204.1c2.6-.6 5.4-.3 8 .7 2.7 1.2 4.2 6 2.8 11.2-1.4 5.3-3.3 8.4-9.4 9.4 0 0-8-.8-11.1-5.6 0 0-1.6-4.1.2-10.4 1.2-4 5.5-17.8 6.3-22.5.8-4.6 6-4.3 6 .5a81 81 0 0 1-3.3 16.6l.5.1Z"/><path fill="#193560" d="M408.5 202.4a14 14 0 0 1 4.3 1.1l1.5 1a9.5 9.5 0 0 1 2.5 5.7 15 15 0 0 1-.5 5.6l-1 3-1.5 3a8 8 0 0 1-2.2 2.3 11 11 0 0 1-2.8 1.5l-.7.2-.8.2-.7.2-.9.1h-.9l-.7-.2-1.5-.3c-2.3-.6-4.7-1.4-6.7-3l-.7-.5-.7-.7a5 5 0 0 1-.6-.7l-.3-.4-.1-.3-.1-.3a19.9 19.9 0 0 1 0-10l.6-2.4.6-2.3 1.5-4.6c.7-2 1.2-4.2 1.7-6.2l1.4-5.5.3-1.3.3-1.5c.3-1.2 1-2.3 2-3.1.5-.4 1.1-.7 1.8-.8a4 4 0 0 1 3.5 1.3c.4.4.7 1 1 1.5l.2.8.2.8v1.5c0 .9 0 1.8-.2 2.7l-.2 1-.7 3.6c-.2 1.6-.7 3-1.4 4.5l-.2.6c-.4 1.5-1.3 2.4-2 3.5l.3.6h-.9v-1l.7-3 1-3.8c.3-1.8.8-3.5 1-5.3l.4-2.6c.1-.9 0-1.7-.2-2.5s-.7-1.6-1.4-1.8a1 1 0 0 0-1 0h-.3l-.2.1-.5.4-.7 1.2-.2.7-.2 1-.8 3.3c-.6 2.4-1 4.8-1.7 7.2l-1.7 5.6-1 3.7a60.4 60.4 0 0 0-.8 3.6 39.5 39.5 0 0 0-.3 6.6l.1.7v.2l.1.3.2.3.4.4c1 1.2 2.5 1.9 4 2.5a24.5 24.5 0 0 0 5.3 1.4h.1c.5 0 .9 0 1.3-.2.7-.2 1.4-.4 2.1-.8a7.2 7.2 0 0 0 3.2-3 18.8 18.8 0 0 0 2-5.1c.5-2.1.5-4.4-.2-6.3-.3-.9-.8-1.6-1.5-2.2a11 11 0 0 0-5.8-1.3c-.8 0-1.6 0-2.2-.5l-.2-.2c0-.5.1-1 .4-1.4l1.4-.5h2.5v.1Zm12.3-2.7 2.4 1.4 1.2.7 1.5.5c1 .4 2 .6 3 .7l1.8-.2h1l.8-.2.8-.1.7-.3 2.5-.8 1.5-.8c1-.4 1.8-1 2.6-1.5l1.2-.8 1-.9.3-.1.7-.6a1.6 1.6 0 0 1 1.2-.6.2.2 0 0 0 .2 0c.3-.3 1 0 1.5 0l.4.2v.3a6 6 0 0 1-.6.7l-.8.7-1.3 1-1.2 1c-.4.5-1 .7-1.5 1l-1.8 1c-.6.4-1.1 1-1.8 1.2-.5.3-1 .5-1.6.6l-1 .4c-.5.1-.8.3-1.1.5a3 3 0 0 1-1.4.3h-1.6l-1.6.4h-1.6l-3.2-.7-1.6-.7-2-1-1.6-1-.9-.5c-.2-.2-.4-.5 0-1v-.3l1-.8c.2-.1.3 0 .4 0 .2 0 .3.2.5.3Z"/><path fill="#fff" d="m295 137-18.8 22.5-70 18.5s-15.7-5.3-31.6 22.3l-1 2.6-9-3.2s-15.3 27.4-18.9 37c-2.4 6.7-1.2 14.7 10.1 9.6a298 298 0 0 0 34.7-22.1c-1.6 8-6.5 20.6-10.4 33.4l73.3 2.7c0-16 7.2-39.7 7.2-39.7a542 542 0 0 1 45.6-74.3l-11.3-9.4Z"/><path fill="#8C9AAF" d="m179.7 259.3 73 .9 8.2-39s19-39 44-74.1c0 0-4-.4-7.9-5.1l-32.6 37.7-13 12c-2.2 16-8.7 18.2-8.7 18.2l-10.8-9.3-12.8 7.7c-5-3.7-14.9-25.6-14.9-25.6s-17.5 4.1-27 19.5l-8.7 1.5s-16.5 30-18 36c-1.3 5.8 2.2 8 6 6.1 3.6-1.7 33.4-20.5 33.4-20.5s-1.8 9.7-4.6 19.7a63.3 63.3 0 0 1-5.6 14.3Z"/><path fill="#6CDAA6" d="m219.2 208-12.3-19.5a78.1 78.1 0 0 0 44 4.1c.8 9-5.1 14.7-8.2 16.4l-10.2-7.2-13.3 6.2Z"/><path fill="#6CDAA6" d="m235.3 203.7-1.3 16.4-7.6-.3.7-15.1 3.4-3c.9-1 1.6-.9 2.5 0l2.3 2Z"/><path fill="#193560" d="m236.6 205.8-.4 4.8-.4 2.3-.4 2.8-.2 2.2-.1.6v.8l-.3 1.8h-1.1l-1.3-.1h-4.6l-1.3-.1h-1.3v-3.3c0-1.5 0-3 .2-4.4l.1-3 .2-5.1V204l3.4-3.1.4-.3 1-.7c.5-.3 1-.3 1.6-.3l1 .3.2.2h.2a2.6 2.6 0 0 1 .6.8l.2.5.2.2c.5.5.5 1.3.6 2l-.1.5-.3-.1-1.2-.8-.7-.7-.3-.3-.3-.2-.3-.2a.7.7 0 0 0-.6.1l-.4.3c-.6.5-1.2 1-1.7 1.7a7 7 0 0 1-.7.7l-.2.2-.2.1-.1.2v.5l-.3 3.2.2 3.3-.2 2.7v3.5h.1v.2h.1l.2.1 1.3.1 2.4-.2h.8l.1-1 .3-2.4c0-.9.3-1.8.4-2.6l.4-3.2.3-3v-1.5c0-.5.2-.8 1-1h.1c.4 0 .9.1 1.2.3.3.2.2.4.3.6v1h-.1Zm-32.2-26.7h-3.7l-1.8.2-2.1.5-2 .7-1 .4-.8.5-1.1.7-1 .8-2 1.4-1.6 1.6c-.8.8-1.5 1.8-2.5 2.5-.6.5-1 1.2-1.5 1.8-.9 1-1.7 2.2-2.5 3.3-.7 1-1.5 2-2.1 3.1l-.3.3-.7 1.1c-.2.6-.7 1-1.2 1.3l-.2.2c-.3.5-1 .5-1.6.7h-.5v-.4l.5-1 .8-1.3 2.2-3.5c.4-.8 1-1.4 1.4-2l.8-1 .9-1.1 1.6-2.3c.4-.6 1-1 1.6-1.6a21.4 21.4 0 0 0 1.5-1.7l.4-.5a15 15 0 0 1 2.2-1.8l1-.6 1.4-1.4 1.9-1 .9-.5 1-.4 1-.4 1-.4 1-.2 1.3-.2 1.4-.2 1.4-.1h3.3l.7.1c.4 0 .7.3.7 1v.2l-.5 1.1-.5.3-.8-.2Zm75-25.7c3.5-4.3 7-8.6 10.7-12.8l2-2.3 1-1 1.7-2.1 2.7 2.3 7.2 6.2 2.9 2.4-2.9 4-2.2 3a366 366 0 0 0-7.4 10.8l-3 4.7-5.6 8.6-5 8.2-2 3.3-1.9 3.3-3.8 6.5c-1.8 2.9-3.3 5.9-5 8.9l-2 3.9a164 164 0 0 0-2 4l-1.9 4-1 1.9-.5 2c-1.4 5-2.6 10.2-3.7 15.3l-.3 1.5-.6 2.8a54.8 54.8 0 0 0-1 6.4l-.4 1.7-.4 1.7-.2 1c0 1-.3 2.1-.6 3.2l-.7 2.9-.5.7-.1-1v-5l.8-6.3c.8-5.7 2.2-11.2 3.3-16.8.6-3.3 1.6-6.5 2.5-9.7l.2-.7.1-.3.2-.5.6-1.2 1.3-2.5 1.2-2.5 1.2-2.4 2.6-5.2 2.6-5.1 4.7-8 3-5.2 3-5.2c1-2 2.4-4 3.7-6 1.5-2.4 3.2-4.7 4.8-7.1l4.3-7a303 303 0 0 1 4.7-7l3.6-5.1 1.8-2.6 1-1.3v-.2l-.4-.4-1.6-1.3-3.4-3-3.4-3-.2-.2-.2.2-.2.3-.4.5-1.6 1.8-3.2 3.8-6.4 7.7-3.6 4.3c-1 1.2-1.9 2-3 2.3 0 0-.2.1-.2 0-.2-.5-.4-1-.3-1.6 0-.4.6-1.1 1-1.7l.1-.2 2.3-2.6Zm-92 74.8-11.6 7.9-5.9 3.5a93 93 0 0 1-6.8 4 84.7 84.7 0 0 1-6.8 3.5c-1.2.6-2.4 1-3.7 1.4-1.3.3-2.7.4-4 .2a4 4 0 0 1-2.6-1 5.6 5.6 0 0 1-1.7-2.2 9.8 9.8 0 0 1-.6-5c.1-1.5.5-3 1-4.4l1-2 .8-2a405 405 0 0 1 9.2-18.7l4-7.4 1.7-3.3 2.2-3.9.4-.7c0-.2.2 0 .3 0l.5.1 1.6.6 1.7.6 3.5 1.2 7.3 2.7-.7 1.6-.4.8-.3.6-.7 1.6-1.2 3.3a200.2 200.2 0 0 0-2.1 5.6 35.8 35.8 0 0 1-2.5 6.4c-.5 1.8-1.5 3-2.3 4.6l-.6.5.1-.9 1-4 1.4-5a76 76 0 0 1 2.4-6.7l2.6-6.6.2-.5-.8-.3-1.6-.6-3.3-1.2-4.3-1.6-.6-.3h-.2v.1l-.2.3-1 1.8-4.3 8.5-3.6 6.7c-1.6 3-3 5.9-4.3 9l-2.5 5.2-1.5 3.2-.7 1.6-.5 1.6c-.6 2-.5 4.3.1 5.9a3 3 0 0 0 1.6 1.6l1.2.3h1.4l3-.9 1.5-.6 1.6-.7 3-1.6 3-1.6 6.6-3.9a245.6 245.6 0 0 0 18.4-12.3c1-.8 2-1.3 3-1.2h.2c0 .6.2 1 0 1.6-.1.4-.7.8-1.1 1.3h-.2l-2.3 1.7Z"/><path fill="#193560" d="m190.7 226.5-.7 3.5c0 .5-.4 1-.5 1.6l-.6 2-1 3.7-.4 2.3-.6 2a33 33 0 0 0-.4 2c-.2 1.1-.5 2.2-.9 3.2l-.6 2-1.1 3.7-1.1 3.2-.2.3-.4 1.1c-.1.6-.4 1-.9 1.3l-.1.2c-.2.5-1 .6-1.5.8h-.4v-.3c0-.3 0-.6.2-1l.5-1.2c.3-1.1 1-2.2 1.2-3.4 0-.7.4-1.3.6-2l.8-2.1.5-2.4.6-1.8c.3-.8.5-1.7.5-2.5 0-.5.1-1 .3-1.4l.7-1.7.1-1.8.4-1.7.9-3.3.6-1.9.6-2.2a47.4 47.4 0 0 0 .6-3.3c0-.3.2-.5.9-.6h.2l1.2.4c.2.1.2.3.3.5l-.2.8Z"/><path fill="#F3D1BE" d="M190.9 185.3s4.3 2 4 8.3c0 3.9-8.4 11.1-10.8 10.9-2.4-.3-1.3-7.3-.7-9.4.7-2.1 4.4-13.5 7.5-9.8Z"/><path fill="#193560" d="M193.4 185.5c1.3 1.3 2.3 3 2.7 4.9v3.5l-.2.8-.6 1.5c-1 1.7-2.3 3-3.5 4.3-.8.8-1.5 1.7-2.4 2.4a17.9 17.9 0 0 1-4 2.5l-.5.2h-.7a2.3 2.3 0 0 1-1.9-.9 4.3 4.3 0 0 1-.4-.6v-.2c-.3-.4-.4-.9-.5-1.3V200l.3-3.1a23.4 23.4 0 0 1 .4-2l.2-.7a56.1 56.1 0 0 1 2.6-7l.3-.4 1-1.6c.4-.6 1-1.3 2.2-1.5l.4-.2a1.3 1.3 0 0 1 1.5.4l.3.6v.3l.1.3-.2.4-.3-.1a1 1 0 0 0-.7-.2l-.5.2-.6.5a12 12 0 0 0-2.3 4.1c-.2 1-.7 1.8-1 2.7l-.6 1.5-.4 1.5c-.2 1-.2 2.1-.3 3.2 0 .8-.2 1.7-.1 2.5 0 .5 0 1 .2 1.4.1.3.2.3.3.3h.2v-.1h.2l.8-.4 2-1 1.6-1.8 1.6-1.6a16.4 16.4 0 0 0 3-4.6l.1-.1v-.8c0-1 0-1.9-.3-2.8a7 7 0 0 0-1.3-2.3l-1-1c-.3-.2-.4-.4-.3-1.1v-.2l1-1 .7.2 1 .8Z"/><path fill="#F3D1BE" d="M162.6 201.2s-3.2-6.6-.4-8.9c2.8-2.2 2.1-9 6.5-9.7 4.3-.7 3.2-10 11.2-8.6 7.9 1.3 11.9 6.9 12 10.3.1 3.4.1 10.8-4 11.5-5.7.8-2.5 6.6-6.3 7-3.9.4-1.9 2.6-5.1 4-2.6 1-4 1.3-8.4-.8-4.2-2-5.5-4.8-5.5-4.8Z"/><path fill="#193560" d="M160 197.8c-.3-1-.4-1.9-.3-2.8a5 5 0 0 1 1-3.1l.6-.7.3-.3.5-.7.8-2 1-2.3a7 7 0 0 1 1.3-2.4 5.6 5.6 0 0 1 2-1.7l1-.2.3-.1h.3l.4-.2.7-.7c.5-.6 1-1.3 1.3-2l1.4-2.3a7 7 0 0 1 2-2.2 6 6 0 0 1 2.9-1.1 17.2 17.2 0 0 1 6.8 1c2 .9 3.8 2 5.3 3.6 1.5 1.4 2.7 3.1 3.3 5.2l.2.7v.6a25.7 25.7 0 0 1-.6 8.2 9.2 9.2 0 0 1-1.6 3.1 4.9 4.9 0 0 1-2.5 1.6l-.7.1c-1.4.4-2 1-2.3 2.6l-.3 1.4c-.1.5-.3 1-.7 1.6-.4.6-1 1-1.7 1.3l-.4.1-.5.1-.5.1-.4.1-.3.1-.3.3-.5 1a4.7 4.7 0 0 1-1.7 1.8l-.3.2-.4.1-.3.2h-.3l-.6.3a9 9 0 0 1-2.6.6 14.9 14.9 0 0 1-4.7-1.1c-.8-.3-1.5-.6-2.1-1a7 7 0 0 1-1.7-1.5l-.5-.4c-1.2-1-1.5-2.3-1.7-3.5 0-.2 0-.4.2-.5l.3.3c.6.7 1.2 1.4 2 2 .8.7 1.7 1.4 2.8 1.9 1.4.6 3 1.3 4.4 1.6.8 0 1.5 0 2.2-.2.7-.2 1.4-.5 2-1 .4-.2.7-.4.9-.7l.6-1.3a2.6 2.6 0 0 1 .7-.7c.1-.2.3-.3.4-.3l.4-.2c.6-.2 1.1-.4 1.7-.4.4 0 .7-.2 1-.4l.5-1c.3-1 .4-2.1 1-3.3.3-.6.8-1.1 1.3-1.5l1.8-.9 1.4-.4.8-.9a9 9 0 0 0 1.5-4.5c.1-1.1.2-2.3.1-3.4v-.9l-.1-.8-.5-1.3c-.5-1-1.2-2-2-3a11.7 11.7 0 0 0-7.8-4.1 12 12 0 0 0-2.1-.2c-.6 0-1.2 0-1.8.3-1 .4-1.8 1.5-2.5 2.8l-1.2 2.2c-.4.8-1 1.6-1.8 2.3-.5.4-1.1.7-1.7.8l-.5.1h-.2l-.5.2c-.6.2-1 .6-1.4 1.2a14 14 0 0 0-1.2 2.8 23 23 0 0 1-1.2 3.1l-1 1.5-.4.3-.2.2-.3.4c-.3.5-.4 1.3-.4 2.2.1 1 .3 2 .7 3 .3.7.4 1.4 0 2.1l-.1.2h-1.4c-.3-.2-.6-.7-.8-1v-.2l-.6-2.1Z"/><path fill="#193560" d="m188.2 194.4-.1-.8c0-.2 0-.5-.2-.7V191c-.3-.5-.3-1-.6-1.6l-.6-.8-.5-.8-.6-.7a8 8 0 0 1-.5-.5 2 2 0 0 1-.4-.6l-.7-.6-1.3-1-.6-.4-.6-.3-.1-.1-.5-.3c-.2 0-.3-.2-.4-.6-.2-.2-.1-.8-.2-1.3v-.4l.3-.1h.5l.6.3c.6.2 1 .8 1.6.9.3 0 .6.4.8.6l.9.8 1 .6.7.8c.3.3.5.7 1 .8l.5.6.3.9.7.6.4.8.6 1.8v1l.3 1.2.1 1c0 .2 0 .4.2.6 0 .1-.1.3-.8.5h-1.8v-.4Zm-4.5 3.2-.1-.6-.3-.7v-.7l-.3-.7-.4-.7-.4-.7-.8-.6-.7-.6-.7-.5c-.4-.2-.8-.4-1-.8l-.9-.4-1.4-.8-1.3-.6a2 2 0 0 0-.5-.3c-.2 0-.4-.2-.5-.6-.2-.2-.1-.8-.2-1.3l.1-.4.2-.1h.5c.2 0 .3.2.5.3.6.1 1 .6 1.5.7.4 0 .6.3 1 .4l.8.6 1.1.4.7.5c.3.3.7.5 1.1.6a1 1 0 0 1 .6.4l.5.7.8.4.6.7 1 1.4.2 1 .4 1.1.2.5v.6l.3.5c0 .2-.1.3-.7.5h-.2l-1.3.2-.4-.1v-.3Zm-5.3 6a3 3 0 0 0-.2-.6l-.3-.5-.1-.7-.3-.6-.9-1.2-.8-.5-.6-.5-.7-.4c-.4-.2-.8-.3-1.1-.6l-.8-.4-1.3-.6-1.3-.5-.5-.3c-.2 0-.4-.1-.4-.6-.3 0-.2-.8-.2-1.2v-.4l.2-.1h.5l.5.2c.5.1.8.5 1.4.5.3 0 .6.3.8.4l.9.5 1 .2.7.5c.3.3.7.4 1 .5.3 0 .5.1.7.3l.5.6c.2.1.6.1.8.3l.6.5 1 1.3.4.9a11 11 0 0 1 .8 2c0 .1 0 .3.2.5 0 .1 0 .3-.7.5h-.2l-1.2.3a1 1 0 0 1-.4 0v-.3Z"/><path fill="#F3D1BE" d="M317.3 123.9a9.2 9.2 0 0 0-6-3.7c1.1-2 5.6-9.8 7.5-12.7 2.2-3.4 3.5-14.2-1.6-15.5-5-1.4-7.3 5.8-9.4 10.6-4.9 11-6.9 15.7-10 21.2l-1 1.9a6.5 6.5 0 0 0-3.5 5c-.5 6.2 5.7 13 5.7 13s4.9 4 9.5 4 11.4-4.2 13.7-8.6c2.3-4.4-1.7-11.2-4.9-15.2Z"/><path fill="#193560" d="m302.5 132 1 1.7.5.8.6 1 1.3 1.6 1 .9.9.8.8.8 1.4 1 1 .8a19.5 19.5 0 0 0 3.3 1.7h.1l.6.2h.3l.4.3c.2 0 .3.1.4.3l.4.4.2.2-.1.1-.3.2a2 2 0 0 1-.4 0h-.8c-.8 0-1.4-.4-2.1-.6a4 4 0 0 1-1.1-.6l-1.2-.7-1.3-.7-.8-.7-1.2-.8a2 2 0 0 1-.7-.6l-.7-.8-.8-.6-.7-.7-1.3-1.6-.6-1-.7-1.2-.6-1-.4-.7c-.1-.2 0-.3.3-.6l.9-.3h.3l.1.4Z"/><path fill="#193560" d="M302.5 129.4a25.5 25.5 0 0 0 2.8-2.5l.2-.3.1-.1v-.1l-.2-.2a3 3 0 0 0-.5-.3l-1.2-.4a9.5 9.5 0 0 0-4.2.2 8 8 0 0 0-4.1 2.6 5 5 0 0 0-1 2v2.4c.2 1.6.7 3.3 1.5 4.8 1 1.8 2.2 3.5 3.6 5.1l.2.3.1.1.6.5a21.1 21.1 0 0 0 3.8 2.1 9 9 0 0 0 5 1 14 14 0 0 0 3.9-1.3l3.6-2a13.3 13.3 0 0 0 3.9-4l.3-.5.1-.3.1-.2.2-.5.1-.5c.2-.7.2-1.4 0-2.1-.2-1.6-.7-3.2-1.5-4.6a31 31 0 0 0-3.6-5.7l-.7-.8-.8-.6-.6-.6c-.7-.5-1.6-1-2.5-1.1-1.2-.2-2.3-.2-3.5 0a1 1 0 0 0-.5.1l-.8.4-.8.3-.8.3c-.3 0-.6.2-.9.4h-.6l.3-.6a9 9 0 0 1 2.3-2 7.8 7.8 0 0 1 6.6-.8 9.3 9.3 0 0 1 3.5 2l1 1 .4.5.4.5.8 1a24 24 0 0 1 3 5.3 14.4 14.4 0 0 1 1.4 7.6l-.2 1-.4.9-.4.8c-.6 1-1.4 2-2.3 2.9a23.2 23.2 0 0 1-12 5.7c-1.5.1-3-.4-4.4-1-1.7-.6-3.1-1.7-4.6-2.6l-.5-.4-.3-.2-.2-.1-.2-.2-.9-1a21 21 0 0 1-4-6.6 15 15 0 0 1-1.2-5.4v-1.4l.4-1.5c.4-1 1-1.8 1.6-2.6a11 11 0 0 1 5.5-2.9 11 11 0 0 1 3.6-.3 7 7 0 0 1 3.7 1.1l1 1a2.2 2.2 0 0 1 .4 2c0 .3-.2.6-.4.9l-.5.6a15 15 0 0 1-2 1.8l-2.6 2c-.7.7-1.3 1-2.1.8h-.2c-.2-.5-.4-1-.4-1.4 0-.3.5-.7.8-1v-.1l1.7-1.3Z"/><path fill="#193560" d="m311.1 117.5 3.6-6 2-2.8 1-1.7.3-.4.2-.3.4-.9c.9-2.2 1.3-4.5 1.2-7 0-1.3-.4-2.6-1-3.8-.7-1-1.4-1.6-2.6-1.7-.5 0-1 .1-1.4.3-.5.3-1 .6-1.3 1-1.1 1.4-2 3.3-3 5.1l-1.5 4-3 6.8-2.6 6c0 .3-.2.5-.3.6l-1 2.2c-.4 1-1 1.8-1.8 2.6l-.2.3c-.5.9-1.4 1.2-2.2 1.8h-.5v-.4l1-1.9 1.1-2.3c1-2.1 2.2-4.1 3-6.4.4-1.3 1.1-2.6 1.7-3.8l1.9-4.2.8-2.3.8-2.2 1.6-3.5a26 26 0 0 1 3-4.6 4.8 4.8 0 0 1 4.5-1.4c.4 0 .8.2 1.1.3.7.3 1.4.8 2 1.3a9 9 0 0 1 2 3.6c.3 1.2.4 2.5.3 3.8a22.3 22.3 0 0 1-1.5 7.3c-.3.7-.7 1.3-1.1 1.8l-1.1 1.6-2.5 3.9a172.2 172.2 0 0 0-3.3 5.6c-.2.6-.6 1-1.4 1h-.2l-.9-1 .1-1 .8-1.3Zm-7.1 17.1 1.2-.4.7-.1.6-.2 1.3-.6.6-.5.7-.5.5-.4.8-.8.5-.6.3-.5.3-.5.4-1h.1l.1-.4a.4.4 0 0 1 .4-.4v-.1c0-.2.5-.2.8-.4h.3v.1l.1.4v.5l-.3.7-.2.7-.4.7-.6.8-.4.8-.6.6-.7.7a1 1 0 0 1-.4.4l-.7.3-.4.6-.6.3-1.2.6-.8.2-.9.2-.7.3a3 3 0 0 0-.5.2s-.2 0-.4-.5l-.2-1v-.2h.3Zm3.5 3.8 1.1-.4.7-.1.6-.3 1.2-.5.6-.6.6-.4.5-.5.7-.8.4-.5.7-1 .2-.5.2-.5v-.1l.2-.4c0-.1.1-.3.4-.4 0-.2.5-.2.8-.3h.3l.1.1v.4l-.1.5c-.1.4-.5.8-.5 1.3l-.4.7-.5.7-.4.8-.6.5a2 2 0 0 0-.6.8c0 .2-.2.3-.4.4l-.6.3-.4.6-.6.3c-.3.3-.7.5-1.1.6l-.8.2-.8.3-.7.3c-.2 0-.3 0-.4.2-.1 0-.3 0-.5-.4v-.2l-.2-.8v-.3h.3Zm4 3.2c.3 0 .5-.2.8-.3h.5l.4-.2.9-.4.4-.4.4-.4c.2 0 .3-.2.4-.3.1-.3.3-.5.5-.6.1-.1.3-.2.3-.4l.5-.7.2-.4.2-.3c0-.2.1-.2.2-.3 0-.1 0-.2.3-.3 0-.1.5 0 .8 0h.3c.1.2.1.3 0 .4v.3c-.1.4-.5.6-.5 1 0 .2-.2.3-.3.4l-.4.6-.3.6-.4.4c-.2.1-.3.3-.4.6l-.3.3c-.1 0-.3 0-.5.2l-.2.4-.4.3-1 .5h-.5l-.6.3-.5.2-.4.1-.3-.4v-.1l-.3-.8v-.3h.2Z"/><path fill="#F3B998" d="M268.3 122c-.8-3.7-9.4-3.1-12.6-5.2a1.3 1.3 0 0 1-.4-1.6c0-.2.2-.3.4-.5 1.6-1.2 3.6-2 5.6-2.2 1 0 1.5-1 .9-1.8-3.3-5.3-7.5 2.3-1 2.2l-4.1-1.6s2.6-1-11.3-5.8c-15-5.2-6.2-8.8-6.5-1 0 0-7.3-2.8-21.2 2-11.6 4.2-15.3 11.3-15.3 11.3s-4.4 4.5-8.2 14.4c-5.2 13.4-3.7 20-1.6 23.3l-4.1-.3c-1-.2-2 0-2.8.3-4.2 1.7-2.5 12 .8 14.4 2.2 1.5 4.3.2 5.5-.9h.2a.4.4 0 0 1 .4.2c3.5 20.5 27.8 25.5 41 25.8 11.6.2 28.5-3.5 34.7-19.7.8.8 2.2 1.3 3.9.4 3.3-1.8 5.4-7 4.3-10-.5-1.5-2.8-1.6-4.6-1.3l.4-.8s-2.2-8-.4-16c1.7-8.2-4-13.4-4-13.4s1.6-5.5 0-12.3Z"/><path fill="#193560" d="m217.3 132.4.3-1.6v-.8c0-.4 0-.7.2-1 0-.6.3-1.1.5-1.7l.6-.9.5-.7.3-.3.3-.2 1-.2c.1 0 .3 0 .5.2.5.2.8.5 1.2.8l1 1.1v.1l.4.4a.7.7 0 0 0 .6.4.1.1 0 0 1 .1.1c.1.2.7 0 1.1 0h.4v-.2l-.1-.5-.4-.6c-.3-.6-.9-1-1.1-1.5-.2-.4-.5-.6-.8-.8l-1-.8a4 4 0 0 0-1.3-.7h-1.3l-1.6.6c-.3.1-.6.3-.8.6l-.5 1-.7.6a12 12 0 0 0-1 2.6l-.1 1.1-.2 1.2-.2 1-.1.7c0 .1 0 .3.6.4h.2l1 .1.4-.1v-.4Z"/><path fill="#FFAC69" d="M258 101.5s-10.5-21-27.5-21c0 0 2 5.5 2 10 0 0-8.8-3-25.5 2.5-8 2.7-13.5 18.5-13.5 18.5s-10.4 7.6-11 18.5a76 76 0 0 0 5 23.5c1.9 4.7 5.5 3.5 5.5 3.5s0-18.6 9.5-27.5c0 0 4.9 2 12.5-.5 7.6-2.4 25-14.6 28-13 3 1.7-2.5 12-2.5 12s8 1 19-8.5c0 0 9.1 15.5 13 44.5 0 0 6.9-14.6 5.5-20l-1.5-6s3.3-9.6 1-16c-2.3-6.3-6.5-10.5-6.5-10.5s2.5-3.3 8-3.5c0-1.2-11-10.7-21-6.5Z"/><path fill="#193560" d="M253.7 96.8a29.4 29.4 0 0 0-18.6-14.4l-2-.5h-.4l-.3-.1h-.4a.3.3 0 0 0-.3.3v.2l.2.5 1 2.7.8 3v.7l.2 1.1v2.2l-1.7-.3-.7-.1-.7-.1a37 37 0 0 0-11-.3c-2.9.2-5.7.6-8.5 1.3l-2 .5-1.9.6-.9.3-.9.4-.8.4-.9.5c-1.7 1-3.2 2.4-4.4 4a27 27 0 0 0-4.9 10.6l-.1.9-.1.5v.3l-.1.5-.5.6-.3.3-.3.3-.4.2h-.1l-.4.3-.7.4-1.2 1.1a28.8 28.8 0 0 0-6.6 15.2 34 34 0 0 0 .1 6.4l.2 1.3c.2 1.6.6 3 1 4.6.6 1.9 1.3 3.8 1.7 5.7l.3.8c.9 1.7 1 3.4 1.5 5 .1.3 0 .5 0 .8l-.6-.7a33.7 33.7 0 0 1-4.2-8.6 41.1 41.1 0 0 1-2.4-14.6c0-2.9.8-5.8 1.9-8.5a28 28 0 0 1 6.6-10l1-.7.6-.4.3-.2h.1l.2-.1v-.5l.1-.5a25.6 25.6 0 0 1 4-10.4 22.4 22.4 0 0 1 7.7-7.5c1-.5 1.9-.9 2.9-1.2l1.5-.4 1.5-.4 3.6-.7 3.7-.5c2.4-.3 4.7-.6 7.1-.6 1.3 0 2.5 0 3.7.2l1.8.1 1 .2h.5v-.2l-.1-.7c-.3-1-.5-1.9-.9-2.8l-.5-1.4-.3-.8-.2-.5v-.6c-.3-1-.2-2 .6-2.6l.6-.4.7-.2h2.1l.5.2 1 .2 2 .6 1.9.7 1.8.7a28.8 28.8 0 0 1 14.2 11.8 35 35 0 0 1 2.4 4.2c.6 1.2.9 2.4.5 3.3l-.1.2c-.5-.1-1-.1-1.5-.4-.3-.2-.6-.9-1-1.4v-.1l-.6-1.3-.6-1.2Z"/><path fill="#193560" d="M267.6 132.7a69.5 69.5 0 0 1 5 28.6c-.1 4.9-1 9.7-2.7 14.2-2 5.3-5.6 10-10.2 13.3a37 37 0 0 1-14.5 6 63.1 63.1 0 0 1-34.2-3.5 39.2 39.2 0 0 1-8-4.3 29.6 29.6 0 0 1-9.3-11.4l-.2-.6-.3-.7-.4-1.3-.4-1.3-.1-.4-.1-.3v-.2s0-.1-.2 0h-.2v.1l-.4.2-.8.4a5 5 0 0 1-2 .2 5 5 0 0 1-2-.6l-.4-.2-.4-.3-.7-.7a16.8 16.8 0 0 1-2.8-9.9c0-1.3.4-2.5 1-3.6a4.4 4.4 0 0 1 2.4-2.2l1-.3a6.5 6.5 0 0 1 4.7.9h.1l.2.2v-.1l.2-.8v-.6l.2-1.1.4-2.2.4-2.2a53.3 53.3 0 0 1 5.4-13.9l.8-1.3.8-1.2a21 21 0 0 1 2.3-2.7l.5-.2a4.6 4.6 0 0 1 1.5 0h1.2a17.4 17.4 0 0 0 10.7-1.2c1.4-.5 2.8-1.2 4.2-1.9l12-6.3a108.7 108.7 0 0 1 7.8-3.7l.5-.2h.3l.4-.2 1.6-.2c.4 0 .9.1 1.2.4a2 2 0 0 1 .8 1.2v1.3l-.1.4-.2.4-.2.6c-.2 1-.6 1.8-1 2.7a32 32 0 0 1-2.3 4.5l-.3.5c0 .1 0 0 0 0h.4l.7-.2 1.4-.4c1-.3 2-.5 2.8-1a63.8 63.8 0 0 0 7-3.1c3.1-2.2 5.9-3.7 8.6-5.9l1.1-.6-1.1 1.4a41.6 41.6 0 0 1-16 10.8l-1.7.6-1.8.5-1 .2-.7.1h-.6c-.4.1-.8 0-1.2-.1l-.4-.3a1 1 0 0 1-.2-.6c0-.3 0-.7.2-1 .2-.5.3-.9.6-1.3l.9-1.6a36.2 36.2 0 0 0 2.3-4.9l.2-.8.2-.6.2-.5v-.2a.3.3 0 0 0-.3-.1l-1 .1-.3.2-.4.1a16 16 0 0 0-2.5 1.1c-1 .5-2.1 1-3.2 1.7a322.8 322.8 0 0 1-19.3 9.5 18.5 18.5 0 0 1-8.7 1 53.7 53.7 0 0 1-3.7-.2l-.1.1-.3.3-.6.7a35 35 0 0 0-4.6 8.4c-1.2 3-2 6-2.7 9.2l-.7 4.1-.1.5v.8l-.3 1.6-.1 1.6-.1.8v.4l-.2.3-1.3-1.2-.6-.7-.7-.5-.6-.4-.4-.2-.7-.3c-1-.3-2-.3-2.8 0-1 .5-1.6 2-1.7 3.6a13.7 13.7 0 0 0 1.3 7 6 6 0 0 0 1.2 1.7c.2 0 .3.2.4.3a2.8 2.8 0 0 0 1.3.3h.8a4.5 4.5 0 0 0 .7-.4l.2-.2.6-.4.6-.4.3-.2h.3l.4-.1a1.5 1.5 0 0 1 1 .4l.6 1 .3 1.8.3 1 .7 2 .8 2c.4.5.6 1.2 1 1.8 2.5 4 6 7.3 10 9.6a68 68 0 0 0 26.7 6.3 48 48 0 0 0 13.7-1.8c4.4-1.3 8.6-3.3 12-6.2a27 27 0 0 0 8.3-12.5c1-2.9 1.5-6 1.7-9l.1-4.7V157l-.1-2.3a69.9 69.9 0 0 0-6.6-25.4 23 23 0 0 1-2.4-5.8c0-.2-.1-.4 0-.4.6.2 1.2.2 2 .9.4.3.7.7 1 1.2l1 1.6.2.3c.5 1 1 1.9 1.3 2.8l1.2 2.8Z"/><path fill="#193560" d="M236.5 154c.4.3 1 .4 1.4.5l.7.2.7-.2c.5-.3.9-.7 1.1-1.2l.1-.6v-2a4 4 0 0 0-.2-.4c-.3-.4-.6-.6-.7-1-.2-.3-.5-.3-.7-.4-.4-.2-.8-.2-1.2 0l-1.2.7h-.1a2 2 0 0 0-.5.4.7.7 0 0 1-.8.3v.1c-.2.2-.9 0-1.3 0l-.4-.3v-.2c0-.2 0-.4.2-.6l.6-.6c.4-.6 1.2-.8 1.7-1.4l.6-.4.8-.2c.5-.1 1-.1 1.6 0a4 4 0 0 1 1.8.5c.4.2.7.6 1 1l.5.8.5.8c.2.3.3.6.3 1l-.2 1.3.1.6v.7c0 .2 0 .4-.2.6l-.3.6c-.4.9-1 1.6-1.9 2a6.3 6.3 0 0 1-4.7-.2l-.7-.2c-.3 0-.3-.3-.1-1l.1-.1.7-1 .4-.2.3.2ZM222 143.5c-.1 2-1.4 3.4-2.8 3.3-1.4 0-2.4-1.7-2.3-3.6.1-2 1.4-3.5 2.8-3.4 1.4 0 2.4 1.7 2.3 3.7Z"/><path fill="#193560" d="m222.1 143.5-.5-.1-.3-.2.1-.1v-.5s-.1 0 0 0a.9.9 0 0 0-.1-.8 2 2 0 0 0-.2-.4v-.2l-.6-.7-.2-.1a.2.2 0 0 0-.3 0l-.2-.2a.4.4 0 0 0-.4 0 .4.4 0 0 1-.3 0h-.2a.5.5 0 0 0-.4.3c0 .2-.2.2-.3.4l-.2.4v.4l-.2.1v.3l-.2.2c.2.2-.2.3-.2.4 0 .1-.2.2-.1.3v.4c-.2 0-.2.1 0 .2v.2l.1.1.2.6.1.2v.4c.1 0 .2.1 0 .3h.1v.3c.2 0 .2.2.2.3l.1.1.2.1.7.3h1l.2-.1.3-.3c0-.1.2-.1.2-.3 0-.2.3-.3.4-.6l.2-.5-.1-.3v-.7l.3-.1.5-.1h.5a.5.5 0 0 1 0 .5v1a5.6 5.6 0 0 1-.3 1h-.1l-.2.2c0 .3-.2.4-.4.5 0 .1 0 .3-.3.3-.1.3-.5.3-.7.5l-.9.3-.6-.2a8.7 8.7 0 0 0-1-.3c-.2 0-.4-.2-.5-.3a2 2 0 0 1-.6-1 4 4 0 0 1-.3-1l-.1-.4c-.2-.1 0-.3-.3-.5l.1-1.6.3-.7.2-.4.1-.7.5-.5c0-.1 0-.4.3-.4.1-.4.6-.4 1-.6l.1-.2h1.1l1.3.5c.3.1.6.4.8.7l.4.8.2.2v.2c0 .3 0 .6.2.9a1 1 0 0 1 0 .9v.1l-.6.2Zm33.4 2c0 1.9-1.1 3.4-2.4 3.3-1.2 0-2.1-1.6-2-3.5 0-1.9 1-3.3 2.3-3.3 1.2 0 2.2 1.6 2.1 3.5Z"/><path fill="#193560" d="m255.6 145.5-.5-.1c-.2 0-.3-.1-.2-.2V144a2 2 0 0 0-.2-.4v-.3l-.6-.6a2.2 2.2 0 0 0-.3-.2h-.2l-.2-.2h-.2a.4.4 0 0 1-.3.1l-.1.1a.5.5 0 0 0-.4.2c0 .2-.2.3-.3.5l-.1.3v.4l-.2.2v.2l-.1.2c.1.2-.2.3-.2.4 0 .1-.2.2-.1.3v.4c-.1 0-.1 0 0 .1v.2l.1.1v.1l.2.5.1.2v.3c.1 0 .2.2 0 .4v.2h.1l.1.3.1.1.2.1.7.3h.8l.1-.2.3-.3.2-.2c0-.3.2-.4.3-.6l.1-.5v-.3l-.1-.3v-.3l.3-.2.4-.1.5.1a.4.4 0 0 1 0 .4v1.5l-.2.2v.2l-.2.1c0 .3-.2.4-.3.6 0 0-.1.2-.3.2 0 .3-.4.4-.6.6l-.8.2-.6-.1-.6-.2h-.5l-.3-.4a3 3 0 0 1-.6-.9 4 4 0 0 1-.2-1l-.1-.3c-.1-.1 0-.3-.2-.5v-1.4c0-.3.2-.5.3-.7l.1-.4v-.6l.4-.5c.1-.1 0-.3.3-.4 0-.3.5-.5.8-.7l.2-.1c.2 0 .3-.2.4-.1h.6l1.3.5c.6.3.8 1 1 1.5l.2.1v.2l.1.8a.9.9 0 0 1 0 .8v.2h-.5Z"/><path fill="#fff" d="m217.1 161.9 35.9 1c1 9.2-8.6 17-11.3 19.5.3.3-1 2-9.2 2S218 170.8 217 162Z"/><path fill="#193560" d="M250.3 164.6c-3.2 0-6.3 0-9.4-.2l-4.6-.5-5.4-.3-10.1-.7-1.6-.1h-.7v.5l.2.8a27.8 27.8 0 0 0 3.4 10.3 23 23 0 0 0 5 6.2c1.3 1 2.9 1.8 4.6 2.2a14.4 14.4 0 0 0 8.9-.8 16 16 0 0 0 6.1-5.3l.5-.6 1.6-2.6c.5-1.2 1.2-2.4 2-3.4l.2-.5c.4-1.2 1.3-2 2-3 0-.2.3-.2.5-.3v.6l-.7 2.8-1.3 3.3c-1.3 3-3.3 5.7-5.6 8a13.7 13.7 0 0 1-5 3.3 17 17 0 0 1-6.4 1 15 15 0 0 1-6.6-1.4c-1.7-.9-3.1-2-4.3-3.4a36.8 36.8 0 0 1-4.1-5.8 16 16 0 0 1-1.6-3.8c-.5-1.6-.8-3.2-1.1-4.8l-.6-2.3v-.5l-.2-.5-.2-1.1c0-.7-.5-1.9.6-1.5h2.2l1.5.2 2.3.1 9.3.6 5.2.5a247.2 247.2 0 0 0 15 .6c.9 0 1.6.1 2 .8l.2.2c-.2.4-.3.9-.7 1.2-.2.2-.7.2-1 .4h-.2l-2-.1h.1Zm9.7-28-.3-1.6v-.9c0-.3 0-.6-.2-1 0-.5-.2-1-.5-1.6l-.6-.9-.5-.7-.3-.3-.3-.2-1-.2c-.1-.1-.3 0-.5.1-.5.2-.8.5-1.2.9l-1 1v.2l-.4.4a.7.7 0 0 1-.6.4h-.1c-.1.3-.7.1-1 .2l-.5-.2v-.1l.1-.6.4-.5c.3-.6.9-1 1.1-1.5.2-.4.5-.6.8-.8l1-.8a4 4 0 0 1 1.4-.7h1.3l1.6.6c.3 0 .5.3.7.6l.5.9.7.7.5.9.5 1.7.1 1 .2 1.3.2 1 .1.6c0 .2 0 .3-.6.5h-.2l-1 .1-.4-.1v-.4Zm13.1 23.4c1.2-2.5 2.2-5 3-7.7.3-1.3.8-2.6 1-3.8a13.8 13.8 0 0 0-.7-7.4 9 9 0 0 0-.7-1.3l-.2-.3-.1-.1-.2-.2-.8-1 .5-1 .1-.3.1-.2.2-.3.5-1.2a25.5 25.5 0 0 0 1.4-11.2l-.2-1.1a16.5 16.5 0 0 0-2.7-5.3 15.7 15.7 0 0 0-2.5-2.9l-.4-.3a2 2 0 0 1-1.1-1.5 2.5 2.5 0 0 1 .9-2.6l.4-.3.2-.1a11 11 0 0 1 3.4-1.7l1.2-.3h.7v-.2l-.3-.5-.3-.3-.3-.5a12 12 0 0 0-6.5-4.3 9.7 9.7 0 0 0-2.5-.4h-1.7l-1.7-.2h-.5c-.6.2-1.1.2-1.6 0l-1.7-.2-.4-.3.4-.3 1.2-.5 1.3-.3 1.6-.3 1.6-.1c1.5-.1 3 0 4.5.5 1.5.4 2.9 1 4.2 1.7 1.6 1 2.8 2.3 3.9 3.8l.2.3.2.3.5.7a2 2 0 0 1 .2 2 2 2 0 0 1-1.5 1l-1.5.3a9.4 9.4 0 0 0-3.3 1.7h-.1l-.1.1a.4.4 0 0 0-.2.4.4.4 0 0 0 .2.4l.3.2.3.3.6.6 1.2 1.2c1.4 1.7 2.4 3.6 3.4 5.6.6 1.1 1 2.4 1 3.6.2 1.6 0 3.2 0 4.7l-.7 4.3a26 26 0 0 1-1.5 4.2l-.2.3v.1l.3.4c0 .2.2.3.3.5a13.1 13.1 0 0 1 1.8 5.6 17 17 0 0 1-.3 5 39 39 0 0 1-1.5 5.6 42 42 0 0 1-2 4.9c-.3.9-.8 1.8-1.2 2.6-.4.8-.8 1.3-1.6 1.3h-.3c-.2-.4-.6-.7-.7-1.1-.1-.3 0-.7.1-1v-.1l.9-1.5Zm-32.2-56.2-4 3.2-2.2 1.4-2.4 1.6-4.7 3c-1 .5-1.9 1.2-2.8 1.8-1 .6-2 1-2.8 1.6l-2.7 1.4c-1.3.8-2.8 1.4-4.3 1.9l-3 1a25 25 0 0 1-5.6 1c-1.8.1-3.5 0-5.2-.5l-.5-.2-1-.3-.4-.2-.4-.2c-.8-.4-1.5-1-1.9-1.7a1 1 0 0 0-.2-.2c-.6-.6-.5-1.5-.5-2.2l.2-.3.2.2 1 1c.4.4.9.8 1.4 1a9 9 0 0 0 4.6 1.6h4.5l1.6-.4 3.2-1.1 2.6-.9c1.2-.4 2.2-1 3.2-1.7a12 12 0 0 1 1.9-1l2.3-1 2-1.5 2.1-1.4a196 196 0 0 0 4.2-2.7l2.4-1.5a67.7 67.7 0 0 0 7-5.2h.7l.2.2.4 1-.2.6-1 .7ZM225.4 97a33 33 0 0 1-1.9 2.4l-1 1-1.3 1.2-2.5 2.1-1.4 1.4-1.5 1.1-1.4 1a17 17 0 0 1-2.5 1.5l-1.6.8a21 21 0 0 1-6.4 1.6h-1c-.5 0-1 0-1.4-.3h-.2c-.4 0-.7-.5-1-.9l-.1-.3h2.1c1 0 2 .1 3-.1l1.7-.4a12.3 12.3 0 0 0 2.7-1l.8-.5 1.5-.6.9-.6.8-.7 1-.7c.4-.2.8-.4 1.2-.8l1-1 1.1-1 2.1-2c.4-.3.9-.6 1.2-1a25 25 0 0 0 3-3.6c.2-.2.4-.3.9-.2h.1l.6.7v.4l-.5.5Z"/><path fill="#193560" d="M271.1 163.2c.8-.2 1.7-.4 2.5-.3.5 0 1 .1 1.3.3.6 0 1.1.3 1.6.6a3 3 0 0 1 1.4 1.7v.4l.2.7.2 1.7-.3 1.5-.3 1.5a5 5 0 0 1-1 2l-.4.7-.4.6c-.6.8-1.3 1.4-2 2-.8.6-1.7 1-2.7 1h-.3l-1.1-.1a1.3 1.3 0 0 1-1.1-.9l-.2-.1c-.3-.2-.1-1 0-1.4l.2-.4h.2l.5.2.6.4.9.2c.3 0 .6-.1.8-.3l.5-.3c.2 0 .4-.2.5-.3l.6-.3.5-.5.3-.6.3-.6.7-1c.2-.4.4-.9.3-1.4 0-.3 0-.6.2-.8.1-.3.4-.6.4-1l-.1-.5-.2-.4v-.8l-.2-.4v-.1l-.3-.3a3 3 0 0 0-.7-.4 5 5 0 0 0-1.3-.1 7.6 7.6 0 0 0-1.9.3c-.2 0-.3 0-.7-.6v-.2l-.3-1.3.2-.4h.6Zm-61.8 26.7a97 97 0 0 0 3.4 6.3l1.6 3.2a58 58 0 0 0 3.6 5.6l.8 1 .6.9a.4.4 0 0 0 .5.1h.4l.6-.3c1.3-.6 2.5-1.6 3.8-2.5l3.6-2.6 1-.8 1-.8a2.5 2.5 0 0 1 3.3 0l.4.4.6.6 1.3 1a47 47 0 0 1 2.3 2.4c1 1.1 2.1 2 3.2 3l.7.7.6.5a.1.1 0 0 0 .1 0h.1v-.1l.2-.1.3-.3a12.3 12.3 0 0 0 1.6-2c1.2-1.9 2.3-3.8 3-5.9l.4-.6.7-2.2c.3-1 .6-2 1.1-2.8l.1-.4c.1-1 .9-1.7 1.3-2.5 0-.2.3-.2.4-.3l.2.4v2.2l-.6 2.8c-.6 2.5-1.7 4.7-2.7 7a18.5 18.5 0 0 1-4 5.8c0 .2-.3.3-.4.5-.1 0-.2 0-.3.2l-.4.2c-.5.3-1 .5-1.6.3l-.8-.5-.5-.4-1-.8-2-1.6-2.8-2.9a76.2 76.2 0 0 0-3-2.7h-.2l-.1.2h-.2l-.2.2-.4.3-.8.7-3.2 2c-1 .8-1.8 1.6-2.9 2.3a15.3 15.3 0 0 1-3.7 1.8H219c-.5 0-1-.3-1.2-.7l-1-1.3-1-1.2-1.6-2.4-2-3.6-2.4-4.2-2-3.9-1.2-2.2c-.3-.6-.4-1.2 0-1.8l.1-.1 1.4-.2c.2 0 .4.4.6.7l.7 1.4Z"/><path fill="#fff" d="m343.1 254.3 19.3-18.1a3.4 3.4 0 0 0 1.2-2.4c.1-2.3-.3-6.8 1.3-9.4 3.1-5.2 10.4-8.7 15.6-4.8 5.2 3.8 2.6 12.3 1 15.4-1.5 3-7.5 4.6-8.3 5.4l-1.6 1.5-12.2 16.7-52.7.5-13.6-22.8-1.9-1.8c-1-1-8.2-2.8-10-6.5-2-3.7-5.1-12.7 1.2-17.2 6.2-4.6 13.3.2 16.2 4.5 2 3 2.6 8.5 2.8 11.3a4.1 4.1 0 0 0 1.5 2.8l19.3 23.7 20.9 1.2Z"/><path fill="#fff" d="M380.2 183.2a68.4 68.4 0 0 0-25.8-9.2v2l-2.1-2.2-19.1-1.6-18.5 1.6a2 2 0 0 0-1.5.6v-.4s-17.5-9.6-25.8-3c-10 7.8 5.2 36 9.4 36.4 4.3.4 9-10.5 12.7-19.7 1.6-4 2.5-5.4 3-7.1l1.5 52.9s-.1 5.4 5.3 7c2.7.8 5.4 1.3 8.2 1.7l-.1 5.8s3.5 1.4 5.1 1.5a27 27 0 0 0 6.7-1.5l-.3-5.8c3.5-.4 7.4-1.2 9.9-2 4-1.5 4.1-5.3 4.1-6.8l1.6-55.9c.2 4.8 1.2 6.8 3.6 12.8 3.7 9.1 5.2 26.4 9.5 26 4.2-.4 22.5-25.4 12.6-33.1Z"/><path fill="#193560" d="M312 178.6s-14.5-7.4-22-4c-7.7 3.4 5.7 29.8 8.8 31.4 3 1.6 12-20.8 13.3-27.4Zm42.9.1s12 2.5 18.1 5.4c6.1 2.8 6.3 10.1 3.2 17.7-3.2 7.6-10 12.7-11 12.3-.9-.3-4.5-13.2-5.9-19.7-1.4-6.4-4.7-9-4.6-14.1l.2-1.6Z"/><path fill="#E9986A" d="M355.4 177.2s-13.8-1-21.5-1c-7.7 0-15.8-.6-16.4 1-.7 1.7-.2 50 .8 55.6 1 5.6 2.1 7.8 5.8 8.4 3.6.6 3.5 1.4 3.5 2.3l-.1 9.3s-5.6.5-7-.5c-1.3-1-18.9-24-18.9-24s.6-7.3-2-12.8c-2.6-5.4-10.6-8.2-16-5-5.5 3.1-5.7 13.5-2 17.7 3.6 4.1 9.8 4.8 12 8.2 2.4 3.4 12.6 22.4 12.6 22.4h53.6l13.2-18.1s7-3 8-4 6.5-12.8-.8-17.6c-7.4-4.8-14.6 3.6-15.6 6.2-1 2.5-.5 8.3-1 9.8S346 253.3 343 253.3s-4-9-4-9v-2s12.1-1.9 13-5.1c.9-3.3 3.5-60 3.5-60Z"/><path fill="#fff" d="M321 218.6s12.7.3 24.3-.9c0 0-2.2 15.5-11.7 15.5-8 0-11.7-12.8-11.7-12.8l-1-1.8Z"/><path fill="#193560" d="M338.9 206.3c0 .7-.3 1.4-.8 2-.4.4-1.1.7-1.8.7h-6.6c-.7 0-1.4-.3-1.8-.8-.5-.5-.8-1.2-.8-1.9l-1.1-8.6a2.8 2.8 0 0 1 .8-2l.8-.5 1-.2h8.8a2.5 2.5 0 0 1 1.8.8 2.7 2.7 0 0 1 .8 1.9l-1.1 8.6Z"/><path fill="#193560" d="M334 199.5v1.9l-.1 1-.1 1-.1 2 .1 1.3v2.2c.2.7.2 1.2.1 1.8v1.2l.1 2v2.6a1 1 0 0 1-.2.9c0 .3-.5.5-.8.8h-.4l-.1-.6v-5.1l-.2-1.3v-1c0-.5 0-1-.2-1.4v-.8l.1-1-.2-1v-2.8l.2-1v-1.3a31.3 31.3 0 0 0 0-1.8c0-.2.2-.3.6-.4h.2l.9.1.2.2v.4Zm-25.2-25.9a51 51 0 0 0-14.4-3.6 12.4 12.4 0 0 0-5.1 1.2l-.6.3-.5.3a6 6 0 0 0-1 .8 6 6 0 0 0-1.2 2c-.7 1.6-1 3.4-1 5.1a53.3 53.3 0 0 0 8 21.7 36.6 36.6 0 0 0 3.7 4.5l.3.2h.2l.9-.4 1-.9c1-1.1 2-2.7 2.9-4.2l2.4-4.9 3.8-9c0-.3.2-.6.4-1l1.5-3.2 1.7-3.7.1-.6c.1-1.4.8-2.5 1.3-3.7 0-.2.3-.3.5-.5l.1.7v3a13 13 0 0 1-.8 4.1c-.7 1.7-1.6 3.2-2.3 4.8l-2 5c-.6 2-1.5 3.8-2.4 5.7a68.6 68.6 0 0 1-5.5 9.2l-1.6 1.4c-.6.4-1.4.7-2.2.7l-1.2-.3-.8-.5-1.2-1.1-1.8-2.4c-1.5-2.1-2.7-4.3-4.1-6.5-.8-1.2-1.4-2.6-2-4l-1.6-5.2c-.5-1.7-1.1-3.3-1.5-5.1a26 26 0 0 1-.3-5.6 13 13 0 0 1 1.7-5.6 9.1 9.1 0 0 1 3.3-3.2l1.3-.7c2-.9 4.2-1 6.2-1a35.9 35.9 0 0 1 13.2 3.1l3.3 1.4c1 .4 1.6.9 1.7 1.8v.2c-.4.3-.7.7-1.2.9-.3.1-.8-.1-1.2-.2h-.1l-1.9-1Zm50.2-.3a82.8 82.8 0 0 1 12 3.4l1.3.6 2.5 1.2c1.9 1 3.8 2 5.5 3.3l.6.5.7.6.3.3.2.3.5.7.5.7.2.4.1.4.3.8.2.8c.4 2.1.2 4.3-.2 6.3a35.4 35.4 0 0 1-5.6 13.1 74.9 74.9 0 0 1-7 9.2 14.5 14.5 0 0 1-1.9 1.3l-.6.3a5 5 0 0 1-.9.2 3.3 3.3 0 0 1-1.4-.2l-.4-.2a4 4 0 0 1-1-1 5 5 0 0 1-1.1-1.7l-.7-1.6-1.2-3.3-2.9-11.3-1.4-4.9c-.3-.8-.5-1.6-.9-2.3l-1-2.4-.3-1a111 111 0 0 1-2-6v-3.2c0-1.6.6-2.8 1-4.1 0-.2.3-.4.5-.5l.1.7.3 3.1c0 1.3.2 2.7.5 4a47.8 47.8 0 0 0 2.8 7.7l1 2.6c1 2 1.4 4.3 2 6.4l1.6 7a56.3 56.3 0 0 0 3.3 9l.6.6.2.1h.4l.3-.2a21.4 21.4 0 0 0 5-5.4l2.5-3.7c1-1.5 2.1-3 3-4.6a42 42 0 0 0 2.9-9.9 10 10 0 0 0-.4-4.6 6 6 0 0 0-1-1.8l-.5-.4a3 3 0 0 0-.4-.3l-1-.8a34 34 0 0 0-11.6-5.5 84.3 84.3 0 0 0-9.8-2.4c-1-.2-1.8-.5-2.2-1.3l-.1-.2c.3-.4.5-.9.9-1.2.3-.2.9-.1 1.3-.1h.2l2.2.5Zm-34 15.4a1.8 1.8 0 0 1-1.8 1.8 1.8 1.8 0 0 1-1.8-1.8v-3.2a1.8 1.8 0 1 1 3.6 0v3.2Z"/><path fill="#193560" d="M325 188.7h-.4c-.2 0-.2-.1-.2-.2l.1-.1v-.6l.1-.7v-2l-.1-.1v-.2l-.1-.2-.2-.1a.5.5 0 0 1-.3-.3l-.3-.1h-.2a1.4 1.4 0 0 0-.7.1l-.3.3a.2.2 0 0 0-.2.2l-.1.2-.3.2v.5a.2.2 0 0 1-.1.1v.4l.1.2v.6l.1.3v.2a.3.3 0 0 1-.2.5v.6a.4.4 0 0 0 0 .3c0 .2 0 .5.2.7 0 0 0 .2.2.3h.1l.1.2.1.1h.9l.5-.1.4-.3v-.8h.3l.4-.2.4.1a.5.5 0 0 1 0 .4l-.1.3c0 .2-.1.5-.3.7a2.5 2.5 0 0 1-.6.7h-.4c-.2.3-.4.2-.7.2h-.3c-.3.1-.6-.1-.9-.2-.2 0-.4-.2-.6-.4l-.2-.5-.2-.4-.3-.5V188l.2-.8v-.4l-.1-.4V185l.5-.7.3-.3a3 3 0 0 1 .5-.5l.7-.2c.1 0 .3-.2.4 0 .4-.2.7 0 1 .2h.3l.3.3c0 .2.2.2.3.4l.5 1.1v2.5a.9.9 0 0 1-.1.7c0 .1 0 .2-.4.2Zm16.9-3.2a1.8 1.8 0 0 1 1.8-1.8 1.8 1.8 0 0 1 1.7 1.8v3.2a1.8 1.8 0 0 1-3.4.7l-.1-.7v-3.2Z"/><path fill="#193560" d="m341.8 185.5.4.1c.2 0 .3.1.2.2v.1l-.1.4v1.4s-.1.1 0 .2v1a2.4 2.4 0 0 0 0 .3l.1.3a.4.4 0 0 0 .3.3l.2.2h.1a.5.5 0 0 0 .4.2 1.3 1.3 0 0 0 .8-.2l.2-.3h.2v-.2l.2-.1c0-.2.2-.2.2-.3 0 0 .2-.1.1-.2v-.2a.2.2 0 0 1 0-.2.1.1 0 0 0 .1-.1v-.3l-.2-.1v-.7s-.1-.1 0-.2v-.6l.1-.1.1-.3v-.3a.4.4 0 0 0 0-.4l-.2-.7-.2-.2h-.1l-.1-.3h-.2l-.2-.1h-.7c-.1 0-.3 0-.5.2l-.3.3v.7l-.3.1-.4.1h-.4a.5.5 0 0 1 0-.5v-.3l.3-.7.4-.4.3-.2.2-.1h.2c.2-.2.4-.2.6-.2.1 0 .3-.1.4 0l.8.2c.3 0 .5.2.7.4l.2.5.2.5.3.4v1.3l-.2.8v.3l.1.5v1.4l-.5.6-.4.4a3.2 3.2 0 0 1-.5.5l-.6.2c-.1 0-.3.1-.4 0-.4.2-.8 0-1.1-.2h-.2l-.3-.3c0-.2-.3-.3-.4-.5l-.4-1v-2.6a.9.9 0 0 1 0-.7c.1 0 0-.1 0-.1l.5-.2ZM323.4 217h6.2l3 .2h3.6c2.2 0 4.4 0 6.7-.2l.7-.1h.8l1.7-.3h.4v1.1a19.2 19.2 0 0 1-.4 2.5l-.2.5-.2 1a61.2 61.2 0 0 1-2 5.3 12.7 12.7 0 0 1-7.3 7.2 9.3 9.3 0 0 1-7.6-.8c-2-1.2-3.5-2.9-4.7-4.6l-.3-.6-1.1-2c-.5-.7-.8-1.7-.8-2.6l-.1-.4c-.4-.8 0-1.7.2-2.6l.4-.4.2.3.8 1.7c.3.6.5 1.4.9 2 1 1.8 1.8 3.8 3.4 5.1.9.8 1.7 1.6 2.6 2.2a7 7 0 0 0 2.6.9h1a7 7 0 0 0 3.4-1.4 9.5 9.5 0 0 0 4.3-5.7l.8-2.3c.4-.9.9-1.8 1.1-2.8v-.4l.1-.2v-.1h-.4l-1.2.1-6.3.3-3.5-.1h-9.8a1.3 1.3 0 0 1-1.4-1s-.1 0 0-.2l.3-1.3c.2-.2.5-.2.8-.3h1.3Z"/><path fill="#193560" d="m343.7 174.6-10.5-.8-10.2.8-8.2.5h-.1a1 1 0 0 0-1 .7v4.9l.2 6 .5 22.8c0 4.6.4 9.2.6 13.8l.1 6.5.1 3.3v.7a6.9 6.9 0 0 0 .5 2 5.6 5.6 0 0 0 3.5 3.4l1.4.4c.5 0 1 .2 1.4.3l3 .6 1.4.2 2.5.4v6l1.2.4a22.7 22.7 0 0 0 2.6.6h.7c1.3-.2 2.6-.5 3.8-.9h.4l.1-.1h.1v-1l-.3-5 2.4-.4 1.4-.2a87.4 87.4 0 0 0 7.6-2 4.5 4.5 0 0 0 2.4-3.3l.1-1.2v-1.3l.1-2.8.2-5.6.4-20.1.1-2 .3-7.2a61.6 61.6 0 0 1 .7-10.4c0-2.9.8-5.2 1.3-7.7.1-.4.4-.5.5-.8l.1 1.3v6.1l-.2 8c-.1 7.1-.6 14.2-.5 21.4 0 4.2-.3 8.4-.4 12.7l-.2 6.9v1.8l-.3 1.8a7 7 0 0 1-2 3.4l-.3.3-.4.3-.7.5c-.5.2-1 .5-1.6.6a37 37 0 0 1-6.3 1.6l-1.5.3-.6.1v.8l.2 3.1.1 1.2v.5h-.1l-.6.3-1.2.3-.8.3a38.3 38.3 0 0 1-4.4 1h-.4a25.4 25.4 0 0 1-4-1l-1.5-.5-1-.4h-.1v-5.7h-.7l-.6-.1a99.8 99.8 0 0 1-4.6-.8 18.4 18.4 0 0 1-3.5-1.3 8.5 8.5 0 0 1-4.2-7.3v-1.3l-.1-5.4c-.1-3.5-.5-7-.6-10.4l-.3-10.5a37084.3 37084.3 0 0 1-.6-26.9v-2.9l.1-1a3.5 3.5 0 0 1 3.5-2.8h-.1l13-1 5.6-.4 7.3.6 7 .6c2 0 3.5.4 4.6 1.2l.2.2c-.4.4-.7 1-1.5 1.2-.4.2-1.6.2-2.5.2h-.2l-4.4-.4Z"/><path fill="#fff" d="M341 246h-16.4c-1.2 0-2.1 1-2.1 2.2v3.2c0 1.2 1 2.2 2.1 2.2H341c1.2 0 2.2-1 2.2-2.2v-3.2c0-1.2-1-2.1-2.2-2.1Z"/><path fill="#0AC16A" d="M341 246h-12.5c-1.2 0-2.1 1-2.1 2.2v3.2c0 1.2 1 2.2 2.1 2.2H341c1.2 0 2.2-1 2.2-2.2v-3.2c0-1.2-1-2.1-2.2-2.1Z"/><path fill="#193560" d="m318 250.3-7.8-9.4-3.6-4.8-4.2-5.4-.5-.5a5.2 5.2 0 0 1-1.6-3.7v-.8a36.9 36.9 0 0 0-1.5-7.7l-.8-1.7-1.1-1.4a16.8 16.8 0 0 0-5.8-4.1c-1-.5-2.1-.7-3.2-.7-1 0-2 .2-3 .6l-.6.3-.7.4-.6.5-.5.5a7.5 7.5 0 0 0-2.2 4 14.9 14.9 0 0 0 1 8.3 23.1 23.1 0 0 0 1.4 3c.5.7 1.2 1.4 2 1.8.8.6 1.6 1 2.6 1.5l2.9 1.3.7.3.5.2.2.2.2.1.4.3.1.1.3.3.6.5.6.5.3.3.4.6.8 1.2 1.5 2.5 3 5 .5 1 2.1 3.5c1 1.5 1.8 3 2.3 4.7l.4.7c.9 1.4 1 2.9 1.3 4.4l-.1.6a5 5 0 0 1-.5-.5l-2-3-2.3-4c-2.2-3.4-4-7-6.4-10.5l-2-3.1-.4-.8-.2-.4-.1-.1v-.1l-1.3-1.2-.4-.4h-.1l-.2-.2-.8-.4-1.8-.8-3.6-1.8a12 12 0 0 1-3.5-2.9 20.5 20.5 0 0 1-2.9-7.4 18 18 0 0 1-.2-3.5c0-1.6.3-3.2 1-4.7a12 12 0 0 1 3-3.9c1.5-1.2 3.4-2 5.4-2a10.5 10.5 0 0 1 5.1.9l1.6.7a17.9 17.9 0 0 1 6.2 5.2l.9 1.6a37.8 37.8 0 0 1 2.1 9.3v1.4a2.6 2.6 0 0 0 .6 1.3l.2.2h.1l.3.3 1 1.2 4 5.4 5 6.3 4.6 5.7 2.6 3.1c.7.8 1.2 1.7 1 2.6v.2c-.5.1-1 .4-1.5.3-.4 0-.8-.6-1.2-.9l-.1-.1-1.6-2Z"/><path fill="#193560" d="M288.2 222.1s-1.3 4.1.2 6.4c1.5 2.2 8.4-2.7 8.6-5 .3-2.2-3.7-3.5-5.2-3.5s-2.7.3-3.6 2.1Z"/><path fill="#193560" d="m288.3 222.1-.3-.2v-.4l.2-.1.5-.6v-.1l.2-.1a5.1 5.1 0 0 1 2-.8h1.1a8 8 0 0 1 3 .8l.5.3.3.2.3.3.3.3.3.3.2.2.1.3.2.3v1.3l-.2.3-.2.4-.3.4c0 .3-.4.3-.6.5l-.3.3-.3.3-.2.2h-.2v.1l-.3.3-.2.2-.8.7-.3.2-.3.1-.2.2a.8.8 0 0 1-.6.2h-.4l-.1.1-.4.2-.6.2c-.4.2-1 .3-1.5.2l-.6-.2-.3-.2a1 1 0 0 1-.2-.4 3.5 3.5 0 0 0-.3-.6l-.3-.8v-.6c-.2-.4-.2-.8-.1-1.2v-1a4.9 4.9 0 0 0 0-.5v-1.2l.2-.2h.1l.4-.2c.3 0 .3 0 .3.2l-.1.6-.1.3v2.3l-.1.2v.8c.1.1.2.2.1.4l.2.4.1.4.4.6.4.2h.4l.5-.1.5-.1a9.4 9.4 0 0 0 2.3-1l.4-.3.5-.5c.6-.5 1-1 1.5-1.3l.7-.7.3-.5a1.3 1.3 0 0 0 0-.6 1 1 0 0 0-.1-.8l-.2-.2-.8-.7-.2-.1-.4-.3-.6-.2a3 3 0 0 0-1.3-.5h-2.2l-.2.1h-.2c-.3 0-.6.2-.8.5l-.7.7v.2h-.5Zm-2.8-5.8c.6.8.3 1.4-.2 1.8-.5.4-1 .3-1.7-.5-.6-.9-.7-1.9-.1-2.2.5-.4 1.4 0 2 .9Z"/><path fill="#193560" d="m285.5 216.2-.2.2h-.2v-.4h-.1l-.2-.2-.2-.1-.1-.2-.4-.1h-.5l-.1.1-.1.1v.9l.1.1v.5h.1v.2l.2.1.3.3v.1h.1l.1.2v.1h.2v.1h.1l.4-.1.1-.1.2-.1.1-.1v-.2l.2-.2v-.5h-.2l-.1-.1-.1-.1.1-.2.2-.2.2-.1h.1v.1l.1.1.2.3a1.6 1.6 0 0 1 .2.5c0 .1-.1.1 0 .2l-.2.3v.2c0 .2-.2.2-.3.3l-.3.3h-.2l-.3.1-.2.2h-.3c-.2 0-.4-.2-.5-.3l-.4-.4v-.1c-.2 0-.2-.2-.3-.2a2 2 0 0 1-.4-.6v-.6l-.2-.3v-.5l.3-.6c0-.1.1-.2.3-.2l.2-.1h.7c.3 0 .6.2.8.3h.1v.1l.4.3.1.1v.2h.1l-.2.3Zm3.9-2.5c.6.8.3 1.4-.2 1.8-.5.4-1 .4-1.7-.5-.6-.9-.6-1.8-.1-2.2.5-.4 1.4 0 2 .9Z"/><path fill="#193560" d="m289.5 213.6-.3.2h-.2v-.2h-.1c0-.2-.2-.2-.2-.3l-.2-.1-.1-.1-.4-.2h-.5l-.1.1-.1.2v.7l.1.1v.2c.1 0 0 .1 0 .2v.1l.1.1v.1l.2.1.3.3v.1h.1l.1.2v.1l.2.1h.1l.4-.1h.1v-.2h.2l.1-.1.1-.2v-.1l.1-.3v-.2l-.2-.1-.1-.1-.1-.1.1-.2.2-.2.2-.1a.2.2 0 0 1 .2.1v.1l.2.3a1.6 1.6 0 0 1 .2.5v.2l-.1.3c0 .1 0 .2-.2.2l-.2.4-.2.2h-.3l-.3.2-.2.1h-.3a.5.5 0 0 1-.5-.3 2 2 0 0 1-.4-.4v-.1c-.2 0-.2-.1-.3-.2a2 2 0 0 1-.3-.6v-.3l-.1-.2-.2-.3v-.6c0-.2.2-.4.3-.5v-.2l.3-.1.3-.1h.6c.4 0 .6.2.8.3h.1v.1l.4.3.1.2.1.2-.1.2Zm4.7 1.4c.6.7.3 1.3-.2 1.6-.4.3-.9.3-1.4-.4-.6-.8-.6-1.7-.2-2 .5-.3 1.3 0 1.8.8Z"/><path fill="#193560" d="M294.3 215h-.3c0 .2-.1.2-.1.1v-.2h-.1l-.2-.2-.2-.1v-.1l-.4-.2h-.4l-.1.1-.1.1v.7h.1v.2c.1 0 0 .1 0 .2v.1l.1.1v.2h.2l.2.2v.2h.1l.1.1v.1h.2v.1l.4-.1h.1v-.2h.2l.1-.3s.1 0 0 0l.1-.3v-.2h-.2v-.1a.1.1 0 0 1-.2-.1l.1-.2.2-.2.3-.1a.2.2 0 0 1 .1.1v.1l.3.3a1.6 1.6 0 0 1 .1.4v.2l-.1.3-.1.2c0 .2-.2.2-.2.3l-.3.2-.2.1h-.3l-.2.2h-.2l-.5-.2-.4-.4v-.1c-.1 0-.1-.2-.3-.2l-.3-.5v-.6l-.2-.2v-.5c0-.2.2-.4.3-.5v-.1l.2-.2h.3l.6-.1c.3 0 .5.2.8.3v.1l.4.3.1.1v.2h.1l-.2.2Zm-9.9 6.4c.6.8.3 1.4-.2 1.7-.5.3-1 .3-1.5-.5-.6-.8-.6-1.7-.1-2 .4-.3 1.3 0 1.8.8Z"/><path fill="#193560" d="m284.5 221.4-.3.1h-.1l-.1-.2-.2-.2-.2-.1v-.1l-.4-.2h-.5l-.1.1v.1l-.1.1v.4l.1.2v.2c.2 0 0 .2 0 .3l.1.2v.1h.1l.1.1.2.2h.1v.1c.1 0 .2 0 .1.2v.1h.7l.1-.1.1-.1a.1.1 0 0 0 .2-.1v-.2s.1 0 0-.1l.1-.3v-.2h-.2v-.1h-.1v-.4l.2-.2.3-.1a.2.2 0 0 1 .1.1v.1l.3.3a1.5 1.5 0 0 1 .1.4v.2l-.1.4-.1.1-.2.4-.3.2h-.2l-.3.1-.2.2h-.2l-.6-.3-.3-.4v-.1l-.3-.1-.3-.6v-.3l-.1-.2-.1-.3v-.5l.2-.6.3-.2.3-.1h.6c.3 0 .5.2.8.3v.1c.2 0 .2.2.4.3a.4.4 0 0 1 .2.3l-.2.3Zm77.3 32.1 5.8-8.5 1.5-2 .8-1 .4-.5.2-.3.4-.4 1-1 .3-.2h.1l.1-.1.3-.2.8-.4 2.7-1.2 2.3-1.2a7 7 0 0 0 1.8-1.6l.3-.4.3-.6a18.8 18.8 0 0 0 1.6-6.9c0-1-.1-2-.4-3a6.3 6.3 0 0 0-3.2-4c-1.5-.8-3.3-1-5-.6-2.6.6-5 2.3-6.9 4.3l-.4.6-.4.5a4 4 0 0 0-.6 1.2c-.2.9-.4 1.8-.4 2.7l-.1 2.6v2.9a5 5 0 0 1-1.3 2.7l-.6.5-2 2-7 6.7-.7.6c-.9.8-1.8 1.5-2.6 2.4-1 1-2.2 2-3.5 2.7-.2 0-.3.2-.5.4-1 1-2.3 1.2-3.5 1.7h-.6l.3-.6 2-2.1 3-2.7c2.4-2.4 5.1-4.6 7.5-7.1 1.4-1.5 3-2.9 4.5-4.3l1.2-1.1.6-.6.5-.5.4-1.2v-5.2c0-1.3.2-2.6.6-3.8l.8-1.4.4-.6.5-.6 1-1.2 1.2-1c2.1-1.7 4.6-2.8 7.3-3.3a8 8 0 0 1 4.8.7 9 9 0 0 1 4.4 4.2c.9 1.7 1.3 3.6 1.4 5.5a22.2 22.2 0 0 1-2 8c0 .3-.2.5-.3.7l-.4.8-.6.6-.5.6a17.7 17.7 0 0 1-6.2 3.3l-.6.3h-.3l-.2.2-.1-.2-.3-.2v-.2l.4.6-.3.2-.6.5-.5.5h-.1v.1l-.2.2-4 5.5-3.4 5.1-1.9 2.9c-.5.8-1 1.3-2 1.4h-.2c-.3-.5-.6-.9-.7-1.3-.1-.4.2-.8.3-1.3l1.3-1.8Z"/><path fill="#193560" d="M375.7 229.2s1.1 3.3-.1 5.1c-1.3 1.8-6.8-2.2-7-4-.2-1.8 3-2.9 4.2-2.8 1.2 0 2.2.2 3 1.7Z"/><path fill="#193560" d="M375.8 229.1h-.4c-.1.1-.2 0-.2 0v-.2a1 1 0 0 0-.3-.4h-.2a1 1 0 0 0-.6-.5l-.6-.1s-.2-.2-.3-.1H372l-.4.1-.3.1-.3.1-.6.3-.4.2-.2.1c-.2 0-.4.2-.5.4l-.2.3-.1.3v.2l-.1.2c0 .1 0 .3.2.4v.2c0 .1 0 .2.2.3l.1.3c.2 0 .2.3.3.5l.3.2a1.3 1.3 0 0 1 .3.3v.1a.2.2 0 0 0 .2.2h.2l.2.2h.1l.7.4.2.2.2.2h.2l.2.2.1.1h.1l.2.3.4.1.4.2h1.5v-.2l.3-.2.2-.5.1-.6c0-.1.1-.2 0-.4V231l-.2-.4-.2-.4-.1-.5v-.1l.1-.2.3-.2h.3l.2.4v.3c0 .3.2.6.3.8a8.5 8.5 0 0 1 .2 1.2s-.1.1 0 .2v.7c0 .2 0 .3-.2.4l-.2 1c0 .2-.3.5-.5.7-.2.2-.5.3-.8.3h-1a2 2 0 0 1-.5 0 6.4 6.4 0 0 1-2-1.2l-.4-.3c-.2 0-.3-.2-.5-.3-.5-.3-1-.7-1.3-1.1l-.5-.8-.3-.4c-.1-.3-.3-.5-.3-.8l.1-1 .3-.4c.2-.4.6-.6 1-.9l.1-.1.4-.2.5-.2 1.3-.4c.3-.1.7-.2 1-.1a18.5 18.5 0 0 1 1.3.1l.2.1c.3.1.7.3 1 .6.3.2.5.5.6.8v.2c.2 0 .1.1-.1.3Zm.2-5.6c-.4.8-1 .7-1.4.5-.4-.3-.6-.7-.2-1.4.4-.8 1.2-1.2 1.6-1 .5.3.5 1.1 0 1.9Z"/><path fill="#193560" d="m376.1 223.5-.2-.1-.1-.2a.2.2 0 0 0 .2-.1v-.3c.1 0 0-.1 0-.2h.1v-.5c-.1 0 0-.1 0-.1s-.1-.2-.2-.1v-.1h-.4l-.1.1-.1.2h-.1l-.1.1c0 .1-.2 0-.2 0l-.1.2h-.1v.4l-.1.2v.1h-.1v.1l-.1.1v.2c-.1 0 0 0 0 0v.1l.2.2v.1h.1v.1h.7l.2-.2v-.4h.4l.3.2a.1.1 0 0 1 0 .2h-.2l-.1.4a1.3 1.3 0 0 1-.3.3h-.5c0 .1-.1.1-.2 0h-.3l-.3-.1-.2-.2-.1-.2h-.2l-.1-.3v-.6l.2-.4v-.1s.1-.1 0-.2l.4-.5.3-.2h.1c0-.2.1-.2.2-.3l.3-.1s0-.1.1 0c.2-.2.4-.1.6-.1h.1l.2.1.2.2.3.5c.1.3 0 .6 0 .8v.1l-.1.4v.2h-.2v.1h-.4Zm3.3 2c-.4.8-1 .7-1.4.5-.5-.3-.7-.7-.3-1.4.5-.8 1.2-1.2 1.6-1 .5.3.5 1.1.1 1.9Z"/><path fill="#193560" d="m379.5 225.5-.3-.1c0-.1-.1-.2 0-.2a.2.2 0 0 0 .1-.1l.1-.3v-.2s.1 0 0 0v-.6s0-.2-.1-.1l-.1-.1h-.4v.1l-.2.2h-.1l-.1.1-.2.1-.1.2h-.1v.2l-.1.2v.2l-.2.1v.3l.2.2.1.1.1.1h.7l.1-.2v-.3h.5l.2.2a.1.1 0 0 1 0 .2l-.1.1-.2.3-.1.2h-.1l-.1.1h-.4c-.1.1-.2.1-.2 0-.2.1-.3 0-.4 0h-.3l-.1-.3-.2-.1-.2-.2v-.8l.1-.4c0-.2.2-.2 0-.3l.4-.5.3-.2h.2l.1-.3.3-.1s0-.1.2 0c.1-.2.3-.1.5 0 0 0 0-.1.1 0h.2l.2.2.3.5c.1.3 0 .6 0 .8v.1l-.1.4a.3.3 0 0 1-.2.3h-.3Zm.7 4.1c-.4.7-1 .7-1.3.4-.4-.2-.6-.5-.2-1.2.4-.7 1-1 1.4-.8.4.2.5 1 0 1.6Z"/><path fill="#193560" d="m380.2 229.6-.2-.1-.1-.1h.1v-.2l.2-.2v-.6c-.1 0 0-.1 0-.1l-.2-.1c0-.1 0 0 0 0l-.1-.1h-.2l-.1.2-.1.1h-.2c0 .1 0 0 0 0 0 .2-.1.1-.2.2l-.2.1v.4l-.1.1-.1.2v.1c-.1 0 0 .1 0 .1l.1.2h.1l.1.2h.6v-.2c.1 0 0 0 0-.1v-.1l.1-.1h.4l.3.3v.1l-.1.1-.2.3a1.4 1.4 0 0 1-.2.2h-.2c0 .2-.2.1-.3.1-.1 0-.1.1-.2 0h-.3l-.3-.1-.1-.2-.2-.2h-.1l-.1-.3v-.5l.1-.4.1-.1v-.2c0-.2.2-.3.3-.5l.3-.1h.1l.1-.3.3-.1s0-.1.2 0c0-.2.3 0 .4 0 0 0 .1-.1.2 0h.1l.2.2.3.5v.8l-.1.4v.1l-.2.1h-.3Zm-8.4-5c-.4.7-.9.6-1.3.4-.4-.2-.6-.6-.2-1.3.4-.7 1-1.1 1.5-.9.4.3.4 1 0 1.8Z"/><path fill="#193560" d="m371.9 224.6-.2-.2c-.2 0-.2 0-.1-.1l.1-.1.1-.3v-.2h.1v-.4h-.1v-.2l-.2-.1a.1.1 0 0 0-.1 0h-.2v.1l-.2.2h-.1c-.1.1-.1 0-.1 0l-.1.2h-.1v.1h-.1s-.1 0 0 0v.2l-.1.2v.1h-.1v.1l-.1.1v.1c-.1.1 0 .2 0 .2l.2.2h.1v.1h.7l.1-.1v-.3h.5l.2.2v.3l-.2.2a1.2 1.2 0 0 1-.3.3h-.2l-.3.1h-.5l-.2-.1-.2-.2-.1-.2-.2-.1-.1-.2v-.6l.1-.3.1-.2v-.2c0-.2.2-.3.3-.5l.3-.1.1-.1.2-.2.2-.1c.1 0 .1-.1.2 0 .1-.2.3-.1.5 0 0 0 0-.1.1 0h.2l.2.2.3.5v.8l-.2.4a.3.3 0 0 1-.1.3l-.3-.1ZM339 255.1h-5.2l-2.6-.2-2.9-.1-2.8-.1h-.6c-.4 0-.7 0-1-.2-.6-.1-1.2-.5-1.7-1a3.6 3.6 0 0 1-.8-2.2l-.1-1.7v-1.7a3.5 3.5 0 0 1 3.1-3l1.6-.2h7.7l5.6-.2h1.9c.3 0 .7 0 1 .2a3.8 3.8 0 0 1 2.5 3v2.5a5.6 5.6 0 0 1 0 1.5l-.2.5-.5.7-.3.4a1.5 1.5 0 0 1-1.3.6c-.4 0-.8 0-1.2-.3l-.2-.5.2-.1.8-.7.3-.5v-.7l.1-2.6v-.5l-.1-.4a1 1 0 0 0-.7-.5 4 4 0 0 0-1.1-.1h-4.9l-3.5.2h-2.9a17 17 0 0 0-4.2.3h-.4a1 1 0 0 0-.4.1 1 1 0 0 0-.3.3l-.2.3v.5c0 .9.3 1.7.4 2.6v.4l.3.3h4.3l2.9.3 3.4.1h4.8c.5 0 .9.2 1.1.9l.1.2c0 .5-.2 1-.3 1.3-.2.3-.4.3-.6.4H339Z"/><path stroke="#193560" stroke-linecap="round" stroke-width="2" d="M451.5 132.5a35.7 35.7 0 0 0-52 9m19-27.5a38.4 38.4 0 0 0-28.5 30.5m42.9-29.5c11 3.5 20.4 11.2 22.5 17.2M93 32.5a57 57 0 0 0-3.5 25"/></g><defs><clipPath id="a"><path fill="#fff" d="M0 0h678v255H0z"/></clipPath></defs></svg>